<?xml version="1.0" encoding="UTF-8" standalone="no"?><svg xmlns="http://www.w3.org/2000/svg" xmlns:xlink="http://www.w3.org/1999/xlink" contentScriptType="application/ecmascript" contentStyleType="text/css" height="652.2px" preserveAspectRatio="none" style="width:877px;height:652px;" version="1.1" viewBox="0 0 877 652" width="877.2px" zoomAndPan="magnify"><defs><filter height="300%" id="fuo6ky85qqf4m" width="300%" x="-1" y="-1"><feGaussianBlur result="blurOut" stdDeviation="1.2000000476837158"/><feColorMatrix in="blurOut" result="blurOut2" type="matrix" values="0 0 0 0 0 0 0 0 0 0 0 0 0 0 0 0 0 0 .4 0"/><feOffset dx="2.4000000953674316" dy="2.4000000953674316" in="blurOut2" result="blurOut3"/><feBlend in="SourceGraphic" in2="blurOut3" mode="normal"/></filter></defs><g><text fill="#000000" font-family="sans-serif" font-size="8.4" font-weight="bold" lengthAdjust="spacingAndGlyphs" textLength="276.6" x="300.6" y="14.1211">6.1.3. getSettlementWindowByParams GET: /settlementWindows</text><rect fill="#FFB6C1" height="625.4942" style="stroke: #A80036; stroke-width: 0.6000000238418579;" width="67.2" x="150" y="20.693"/><text fill="#000000" font-family="sans-serif" font-size="7.8" font-weight="bold" lengthAdjust="spacingAndGlyphs" textLength="48.6" x="159.3" y="28.234">Central HUB</text><rect fill="#90EE90" height="625.4942" style="stroke: #A80036; stroke-width: 0.6000000238418579;" width="420.9" x="277.5" y="20.693"/><text fill="#000000" font-family="sans-serif" font-size="7.8" font-weight="bold" lengthAdjust="spacingAndGlyphs" textLength="74.4" x="450.75" y="28.234">Settlement Service</text><rect fill="#FFFFE0" height="625.4942" style="stroke: #A80036; stroke-width: 0.6000000238418579;" width="68.4" x="764.4" y="20.693"/><text fill="#000000" font-family="sans-serif" font-size="7.8" font-weight="bold" lengthAdjust="spacingAndGlyphs" textLength="64.8" x="766.2" y="28.234">Central Services</text><rect fill="#FFFFFF" filter="url(#fuo6ky85qqf4m)" height="87.518" style="stroke: #A80036; stroke-width: 0.6000000238418579;" width="6" x="180.6" y="88.3723"/><rect fill="#FFFFFF" filter="url(#fuo6ky85qqf4m)" height="17.5863" style="stroke: #A80036; stroke-width: 0.6000000238418579;" width="6" x="324" y="175.8902"/><rect fill="#FFFFFF" filter="url(#fuo6ky85qqf4m)" height="77.918" style="stroke: #A80036; stroke-width: 0.6000000238418579;" width="6" x="324" y="334.3535"/><rect fill="#FFFFFF" filter="url(#fuo6ky85qqf4m)" height="136.077" style="stroke: #A80036; stroke-width: 0.6000000238418579;" width="6" x="324" y="438.8309"/><rect fill="#FFFFFF" filter="url(#fuo6ky85qqf4m)" height="140.877" style="stroke: #A80036; stroke-width: 0.6000000238418579;" width="6" x="477.6" y="193.4766"/><rect fill="#FFFFFF" filter="url(#fuo6ky85qqf4m)" height="227.768" style="stroke: #A80036; stroke-width: 0.6000000238418579;" width="6" x="658.8" y="211.0629"/><rect fill="#FFFFFF" filter="url(#fuo6ky85qqf4m)" height="46.9453" style="stroke: #A80036; stroke-width: 0.6000000238418579;" width="6" x="795.6" y="237.6492"/><rect fill="#FFFFFF" filter="url(#fuo6ky85qqf4m)" height="491.5219" style="stroke: #000000; stroke-width: 1.2000000476837158;" width="862.2" x="7.8" y="92.5723"/><rect fill="#FFFFFF" filter="url(#fuo6ky85qqf4m)" height="286.1133" style="stroke: #000000; stroke-width: 1.2000000476837158;" width="688.2" x="13.8" y="293.7809"/><rect fill="#FFFFFF" height="162.6363" style="stroke: none; stroke-width: 0.6000000238418579;" width="688.2" x="13.8" y="417.2578"/><line style="stroke: #A80036; stroke-width: 0.6000000238418579; stroke-dasharray: 5.0,5.0;" x1="183.6" x2="183.6" y1="82.3723" y2="594.2942"/><line style="stroke: #A80036; stroke-width: 0.6000000238418579; stroke-dasharray: 5.0,5.0;" x1="326.7" x2="326.7" y1="82.3723" y2="594.2942"/><line style="stroke: #A80036; stroke-width: 0.6000000238418579; stroke-dasharray: 5.0,5.0;" x1="480.3" x2="480.3" y1="82.3723" y2="594.2942"/><line style="stroke: #A80036; stroke-width: 0.6000000238418579; stroke-dasharray: 5.0,5.0;" x1="661.8" x2="661.8" y1="82.3723" y2="594.2942"/><line style="stroke: #A80036; stroke-width: 0.6000000238418579; stroke-dasharray: 5.0,5.0;" x1="798.6" x2="798.6" y1="82.3723" y2="594.2942"/><text fill="#000000" font-family="sans-serif" font-size="8.4" lengthAdjust="spacingAndGlyphs" textLength="58.8" x="152.4" y="80.6004">Hub Employee</text><ellipse cx="183.6" cy="38.2793" fill="#FEFECE" filter="url(#fuo6ky85qqf4m)" rx="4.8" ry="4.8" style="stroke: #A80036; stroke-width: 1.2000000476837158;"/><path d="M183.6,43.0793 L183.6,59.2793 M175.8,47.8793 L191.4,47.8793 M183.6,59.2793 L175.8,68.2793 M183.6,59.2793 L191.4,68.2793 " fill="none" filter="url(#fuo6ky85qqf4m)" style="stroke: #A80036; stroke-width: 1.2000000476837158;"/><text fill="#000000" font-family="sans-serif" font-size="8.4" lengthAdjust="spacingAndGlyphs" textLength="58.8" x="152.4" y="601.8153">Hub Employee</text><ellipse cx="183.6" cy="609.5871" fill="#FEFECE" filter="url(#fuo6ky85qqf4m)" rx="4.8" ry="4.8" style="stroke: #A80036; stroke-width: 1.2000000476837158;"/><path d="M183.6,614.3871 L183.6,630.5871 M175.8,619.1871 L191.4,619.1871 M183.6,630.5871 L175.8,639.5871 M183.6,630.5871 L191.4,639.5871 " fill="none" filter="url(#fuo6ky85qqf4m)" style="stroke: #A80036; stroke-width: 1.2000000476837158;"/><text fill="#000000" font-family="sans-serif" font-size="8.4" lengthAdjust="spacingAndGlyphs" textLength="90.6" x="279.9" y="80.6004">Settlement Service API</text><path d="M314.7,55.6793 L314.7,70.0793 M314.7,62.8793 L324.9,62.8793 " fill="none" filter="url(#fuo6ky85qqf4m)" style="stroke: #A80036; stroke-width: 1.2000000476837158;"/><ellipse cx="332.1" cy="62.8793" fill="#FEFECE" filter="url(#fuo6ky85qqf4m)" rx="7.2" ry="7.2" style="stroke: #A80036; stroke-width: 1.2000000476837158;"/><text fill="#000000" font-family="sans-serif" font-size="8.4" lengthAdjust="spacingAndGlyphs" textLength="90.6" x="279.9" y="601.8153">Settlement Service API</text><path d="M314.7,605.9871 L314.7,620.3871 M314.7,613.1871 L324.9,613.1871 " fill="none" filter="url(#fuo6ky85qqf4m)" style="stroke: #A80036; stroke-width: 1.2000000476837158;"/><ellipse cx="332.1" cy="613.1871" fill="#FEFECE" filter="url(#fuo6ky85qqf4m)" rx="7.2" ry="7.2" style="stroke: #A80036; stroke-width: 1.2000000476837158;"/><text fill="#000000" font-family="sans-serif" font-size="8.4" lengthAdjust="spacingAndGlyphs" textLength="78.6" x="439.5" y="80.6004">Settlement Window</text><ellipse cx="480.6" cy="62.8793" fill="#FEFECE" filter="url(#fuo6ky85qqf4m)" rx="7.2" ry="7.2" style="stroke: #A80036; stroke-width: 1.2000000476837158;"/><polygon fill="#A80036" points="478.2,55.6793,481.8,52.6793,480.6,55.6793,481.8,58.6793,478.2,55.6793" style="stroke: #A80036; stroke-width: 0.6000000238418579;"/><text fill="#000000" font-family="sans-serif" font-size="8.4" lengthAdjust="spacingAndGlyphs" textLength="78.6" x="439.5" y="601.8153">Settlement Window</text><ellipse cx="480.6" cy="613.1871" fill="#FEFECE" filter="url(#fuo6ky85qqf4m)" rx="7.2" ry="7.2" style="stroke: #A80036; stroke-width: 1.2000000476837158;"/><polygon fill="#A80036" points="478.2,605.9871,481.8,602.9871,480.6,605.9871,481.8,608.9871,478.2,605.9871" style="stroke: #A80036; stroke-width: 0.6000000238418579;"/><text fill="#000000" font-family="sans-serif" font-size="8.4" lengthAdjust="spacingAndGlyphs" textLength="64.8" x="627.6" y="80.6004">Settlement DAO</text><ellipse cx="661.8" cy="62.8793" fill="#FEFECE" filter="url(#fuo6ky85qqf4m)" rx="7.2" ry="7.2" style="stroke: #A80036; stroke-width: 1.2000000476837158;"/><line style="stroke: #A80036; stroke-width: 1.2000000476837158;" x1="654.6" x2="669" y1="71.2793" y2="71.2793"/><text fill="#000000" font-family="sans-serif" font-size="8.4" lengthAdjust="spacingAndGlyphs" textLength="64.8" x="627.6" y="601.8153">Settlement DAO</text><ellipse cx="661.8" cy="613.1871" fill="#FEFECE" filter="url(#fuo6ky85qqf4m)" rx="7.2" ry="7.2" style="stroke: #A80036; stroke-width: 1.2000000476837158;"/><line style="stroke: #A80036; stroke-width: 1.2000000476837158;" x1="654.6" x2="669" y1="621.5871" y2="621.5871"/><text fill="#000000" font-family="sans-serif" font-size="8.4" lengthAdjust="spacingAndGlyphs" textLength="54" x="769.8" y="80.6004">Central Store</text><path d="M787.8,50.8793 C787.8,44.8793 798.6,44.8793 798.6,44.8793 C798.6,44.8793 809.4,44.8793 809.4,50.8793 L809.4,66.4793 C809.4,72.4793 798.6,72.4793 798.6,72.4793 C798.6,72.4793 787.8,72.4793 787.8,66.4793 L787.8,50.8793 " fill="#FEFECE" filter="url(#fuo6ky85qqf4m)" style="stroke: #000000; stroke-width: 0.9000000357627869;"/><path d="M787.8,50.8793 C787.8,56.8793 798.6,56.8793 798.6,56.8793 C798.6,56.8793 809.4,56.8793 809.4,50.8793 " fill="none" style="stroke: #000000; stroke-width: 0.9000000357627869;"/><text fill="#000000" font-family="sans-serif" font-size="8.4" lengthAdjust="spacingAndGlyphs" textLength="54" x="769.8" y="601.8153">Central Store</text><path d="M787.8,609.5871 C787.8,603.5871 798.6,603.5871 798.6,603.5871 C798.6,603.5871 809.4,603.5871 809.4,609.5871 L809.4,625.1871 C809.4,631.1871 798.6,631.1871 798.6,631.1871 C798.6,631.1871 787.8,631.1871 787.8,625.1871 L787.8,609.5871 " fill="#FEFECE" filter="url(#fuo6ky85qqf4m)" style="stroke: #000000; stroke-width: 0.9000000357627869;"/><path d="M787.8,609.5871 C787.8,615.5871 798.6,615.5871 798.6,615.5871 C798.6,615.5871 809.4,615.5871 809.4,609.5871 " fill="none" style="stroke: #000000; stroke-width: 0.9000000357627869;"/><rect fill="#FFFFFF" filter="url(#fuo6ky85qqf4m)" height="87.518" style="stroke: #A80036; stroke-width: 0.6000000238418579;" width="6" x="180.6" y="88.3723"/><rect fill="#FFFFFF" filter="url(#fuo6ky85qqf4m)" height="17.5863" style="stroke: #A80036; stroke-width: 0.6000000238418579;" width="6" x="324" y="175.8902"/><rect fill="#FFFFFF" filter="url(#fuo6ky85qqf4m)" height="77.918" style="stroke: #A80036; stroke-width: 0.6000000238418579;" width="6" x="324" y="334.3535"/><rect fill="#FFFFFF" filter="url(#fuo6ky85qqf4m)" height="136.077" style="stroke: #A80036; stroke-width: 0.6000000238418579;" width="6" x="324" y="438.8309"/><rect fill="#FFFFFF" filter="url(#fuo6ky85qqf4m)" height="140.877" style="stroke: #A80036; stroke-width: 0.6000000238418579;" width="6" x="477.6" y="193.4766"/><rect fill="#FFFFFF" filter="url(#fuo6ky85qqf4m)" height="227.768" style="stroke: #A80036; stroke-width: 0.6000000238418579;" width="6" x="658.8" y="211.0629"/><rect fill="#FFFFFF" filter="url(#fuo6ky85qqf4m)" height="46.9453" style="stroke: #A80036; stroke-width: 0.6000000238418579;" width="6" x="795.6" y="237.6492"/><path d="M7.8,92.5723 L192,92.5723 L192,96.7723 L186,102.7723 L7.8,102.7723 L7.8,92.5723 " fill="#EEEEEE" style="stroke: #000000; stroke-width: 0.6000000238418579;"/><rect fill="none" height="491.5219" style="stroke: #000000; stroke-width: 1.2000000476837158;" width="862.2" x="7.8" y="92.5723"/><text fill="#000000" font-family="sans-serif" font-size="7.8" font-weight="bold" lengthAdjust="spacingAndGlyphs" textLength="157.2" x="16.8" y="100.7133">Request Settlement Window properties</text><path d="M189.6,105.9586 L189.6,157.5586 L316.8,157.5586 L316.8,111.9586 L310.8,105.9586 L189.6,105.9586 " fill="#FFFF00" filter="url(#fuo6ky85qqf4m)" style="stroke: #A80036; stroke-width: 0.6000000238418579;"/><path d="M310.8,105.9586 L310.8,111.9586 L316.8,111.9586 L310.8,105.9586 " fill="#FFFF00" style="stroke: #A80036; stroke-width: 0.6000000238418579;"/><text fill="#000000" font-family="sans-serif" font-size="7.8" lengthAdjust="spacingAndGlyphs" textLength="111.6" x="193.2" y="116.4996">GET:: /settlementWindows{id}</text><text fill="#000000" font-family="sans-serif" font-size="7.8" lengthAdjust="spacingAndGlyphs" textLength="48" x="202.8" y="125.6859">state={state}</text><text fill="#000000" font-family="sans-serif" font-size="7.8" lengthAdjust="spacingAndGlyphs" textLength="105" x="202.8" y="134.8723">&amp;fromDateTime={dateTime}</text><text fill="#000000" font-family="sans-serif" font-size="7.8" lengthAdjust="spacingAndGlyphs" textLength="94.8" x="202.8" y="144.0586">&amp;toDateTime={dateTime}</text><text fill="#000000" font-family="sans-serif" font-size="7.8" lengthAdjust="spacingAndGlyphs" textLength="71.4" x="202.8" y="153.2449">&amp;participantId={id}</text><polygon fill="#A80036" points="316.8,173.4902,322.8,175.8902,316.8,178.2902,319.2,175.8902" style="stroke: #A80036; stroke-width: 0.6000000238418579;"/><line style="stroke: #A80036; stroke-width: 0.6000000238418579;" x1="183.6" x2="320.4" y1="175.8902" y2="175.8902"/><text fill="#000000" font-family="sans-serif" font-size="7.8" font-weight="bold" lengthAdjust="spacingAndGlyphs" textLength="5.4" x="187.8" y="173.2313">1</text><text fill="#000000" font-family="sans-serif" font-size="7.8" lengthAdjust="spacingAndGlyphs" textLength="118.2" x="195.6" y="173.2313">GET - /settlementWindows/{id}</text><polygon fill="#A80036" points="470.4,191.0766,476.4,193.4766,470.4,195.8766,472.8,193.4766" style="stroke: #A80036; stroke-width: 0.6000000238418579;"/><line style="stroke: #A80036; stroke-width: 0.6000000238418579;" x1="327" x2="474" y1="193.4766" y2="193.4766"/><text fill="#000000" font-family="sans-serif" font-size="7.8" font-weight="bold" lengthAdjust="spacingAndGlyphs" textLength="5.4" x="331.2" y="190.8176">2</text><text fill="#000000" font-family="sans-serif" font-size="7.8" lengthAdjust="spacingAndGlyphs" textLength="111" x="339" y="190.8176">Request settlementWindow(s)</text><polygon fill="#A80036" points="651.6,208.6629,657.6,211.0629,651.6,213.4629,654,211.0629" style="stroke: #A80036; stroke-width: 0.6000000238418579;"/><line style="stroke: #A80036; stroke-width: 0.6000000238418579;" x1="483.6" x2="655.2" y1="211.0629" y2="211.0629"/><text fill="#000000" font-family="sans-serif" font-size="7.8" font-weight="bold" lengthAdjust="spacingAndGlyphs" textLength="5.4" x="487.8" y="208.4039">3</text><text fill="#000000" font-family="sans-serif" font-size="7.8" lengthAdjust="spacingAndGlyphs" textLength="111" x="495.6" y="208.4039">Request settlementWindow(s)</text><polygon fill="#A80036" points="788.4,235.2492,794.4,237.6492,788.4,240.0492,790.8,237.6492" style="stroke: #A80036; stroke-width: 0.6000000238418579;"/><line style="stroke: #A80036; stroke-width: 0.6000000238418579;" x1="664.8" x2="792" y1="237.6492" y2="237.6492"/><text fill="#000000" font-family="sans-serif" font-size="7.8" font-weight="bold" lengthAdjust="spacingAndGlyphs" textLength="5.4" x="669" y="230.5834">4</text><text fill="#000000" font-family="sans-serif" font-size="7.8" lengthAdjust="spacingAndGlyphs" textLength="101.4" x="676.8" y="225.9902">Fetch settlementWindow(s)</text><text fill="#FF0000" font-family="sans-serif" font-size="7.8" font-weight="bold" lengthAdjust="spacingAndGlyphs" textLength="43.8" x="676.8" y="235.1766">Error code:</text><text fill="#FF0000" font-family="sans-serif" font-size="7.8" lengthAdjust="spacingAndGlyphs" textLength="19.2" x="723" y="235.1766">2001</text><polygon fill="#FFFFE0" filter="url(#fuo6ky85qqf4m)" points="739.2,245.8219,858,245.8219,864,257.2219,858,268.6219,739.2,268.6219,733.2,257.2219,739.2,245.8219" style="stroke: #A80036; stroke-width: 0.6000000238418579;"/><text fill="#000000" font-family="sans-serif" font-size="7.8" lengthAdjust="spacingAndGlyphs" textLength="69.6" x="740.4" y="255.7629">settlementWindow</text><text fill="#000000" font-family="sans-serif" font-size="7.8" lengthAdjust="spacingAndGlyphs" textLength="116.4" x="740.4" y="264.9492">settlementWindowStateChange</text><polygon fill="#A80036" points="671.4,282.1945,665.4,284.5945,671.4,286.9945,669,284.5945" style="stroke: #A80036; stroke-width: 0.6000000238418579;"/><line style="stroke: #A80036; stroke-width: 0.6000000238418579; stroke-dasharray: 2.0,2.0;" x1="667.8" x2="798" y1="284.5945" y2="284.5945"/><text fill="#000000" font-family="sans-serif" font-size="7.8" font-weight="bold" lengthAdjust="spacingAndGlyphs" textLength="5.4" x="675" y="281.9356">5</text><text fill="#000000" font-family="sans-serif" font-size="7.8" lengthAdjust="spacingAndGlyphs" textLength="105.6" x="682.8" y="281.9356">Return settlementWindow(s)</text><path d="M13.8,293.7809 L51,293.7809 L51,297.9809 L45,303.9809 L13.8,303.9809 L13.8,293.7809 " fill="#EEEEEE" style="stroke: #000000; stroke-width: 0.6000000238418579;"/><rect fill="none" height="286.1133" style="stroke: #000000; stroke-width: 1.2000000476837158;" width="688.2" x="13.8" y="293.7809"/><text fill="#000000" font-family="sans-serif" font-size="7.8" font-weight="bold" lengthAdjust="spacingAndGlyphs" textLength="10.2" x="22.8" y="301.9219">alt</text><text fill="#000000" font-family="sans-serif" font-size="6.6" font-weight="bold" lengthAdjust="spacingAndGlyphs" textLength="161.4" x="60" y="301.3617">[Return settlementWindow(s) as per parameters]</text><polygon fill="#A80036" points="490.2,314.3672,484.2,316.7672,490.2,319.1672,487.8,316.7672" style="stroke: #A80036; stroke-width: 0.6000000238418579;"/><line style="stroke: #A80036; stroke-width: 0.6000000238418579;" x1="486.6" x2="658.2" y1="316.7672" y2="316.7672"/><text fill="#000000" font-family="sans-serif" font-size="7.8" font-weight="bold" lengthAdjust="spacingAndGlyphs" textLength="5.4" x="493.8" y="314.1082">6</text><text fill="#000000" font-family="sans-serif" font-size="7.8" lengthAdjust="spacingAndGlyphs" textLength="153" x="501.6" y="314.1082">Successful - settlementWindow(s) found</text><polygon fill="#A80036" points="336.6,331.9535,330.6,334.3535,336.6,336.7535,334.2,334.3535" style="stroke: #A80036; stroke-width: 0.6000000238418579;"/><line style="stroke: #A80036; stroke-width: 0.6000000238418579;" x1="333" x2="480" y1="334.3535" y2="334.3535"/><text fill="#000000" font-family="sans-serif" font-size="7.8" font-weight="bold" lengthAdjust="spacingAndGlyphs" textLength="5.4" x="340.2" y="331.6945">7</text><text fill="#000000" font-family="sans-serif" font-size="7.8" lengthAdjust="spacingAndGlyphs" textLength="128.4" x="348" y="331.6945">Operation successfully completed</text><path d="M186,342.3399 L186,393.9399 L318.6,393.9399 L318.6,348.3399 L312.6,342.3399 L186,342.3399 " fill="#FFFF00" filter="url(#fuo6ky85qqf4m)" style="stroke: #A80036; stroke-width: 0.6000000238418579;"/><path d="M312.6,342.3399 L312.6,348.3399 L318.6,348.3399 L312.6,342.3399 " fill="#FFFF00" style="stroke: #A80036; stroke-width: 0.6000000238418579;"/><text fill="#000000" font-family="sans-serif" font-size="7.8" lengthAdjust="spacingAndGlyphs" textLength="2.4" x="189.6" y="352.8809">{</text><text fill="#000000" font-family="sans-serif" font-size="7.8" lengthAdjust="spacingAndGlyphs" textLength="25.2" x="194.4" y="362.0672">"id": 0,</text><text fill="#000000" font-family="sans-serif" font-size="7.8" lengthAdjust="spacingAndGlyphs" textLength="66.6" x="194.4" y="371.2535">"reason": "string",</text><text fill="#000000" font-family="sans-serif" font-size="7.8" lengthAdjust="spacingAndGlyphs" textLength="60" x="194.4" y="380.4399">"state": "string",</text><text fill="#000000" font-family="sans-serif" font-size="7.8" lengthAdjust="spacingAndGlyphs" textLength="115.2" x="194.4" y="389.6262">"createdDate": "string"            }</text><polygon fill="#A80036" points="190.2,409.8715,184.2,412.2715,190.2,414.6715,187.8,412.2715" style="stroke: #A80036; stroke-width: 0.6000000238418579;"/><line style="stroke: #A80036; stroke-width: 0.6000000238418579;" x1="186.6" x2="326.4" y1="412.2715" y2="412.2715"/><text fill="#000000" font-family="sans-serif" font-size="7.8" font-weight="bold" lengthAdjust="spacingAndGlyphs" textLength="5.4" x="193.8" y="409.6125">8</text><text fill="#000000" font-family="sans-serif" font-size="7.8" lengthAdjust="spacingAndGlyphs" textLength="52.8" x="201.6" y="409.6125">Return results</text><line style="stroke: #000000; stroke-width: 0.6000000238418579; stroke-dasharray: 2.0,2.0;" x1="13.8" x2="702" y1="417.8578" y2="417.8578"/><text fill="#000000" font-family="sans-serif" font-size="6.6" font-weight="bold" lengthAdjust="spacingAndGlyphs" textLength="2.4" x="16.8" y="424.2387">[</text><text fill="#FF0000" font-family="sans-serif" font-size="6.6" font-weight="bold" lengthAdjust="spacingAndGlyphs" textLength="99" x="19.2" y="424.2387">Settlement Window not found</text><text fill="#000000" font-family="sans-serif" font-size="6.6" font-weight="bold" lengthAdjust="spacingAndGlyphs" textLength="2.4" x="118.2" y="424.2387">]</text><polygon fill="#A80036" points="336.6,436.4309,330.6,438.8309,336.6,441.2309,334.2,438.8309" style="stroke: #A80036; stroke-width: 0.6000000238418579;"/><line style="stroke: #A80036; stroke-width: 0.6000000238418579;" x1="333" x2="661.2" y1="438.8309" y2="438.8309"/><text fill="#000000" font-family="sans-serif" font-size="7.8" font-weight="bold" lengthAdjust="spacingAndGlyphs" textLength="5.4" x="340.2" y="436.1719">9</text><text fill="#000000" font-family="sans-serif" font-size="7.8" lengthAdjust="spacingAndGlyphs" textLength="172.2" x="348" y="436.1719">settlement window not found - Return ERROR</text><line style="stroke: #A80036; stroke-width: 0.6000000238418579;" x1="330" x2="355.2" y1="456.6035" y2="456.6035"/><line style="stroke: #A80036; stroke-width: 0.6000000238418579;" x1="355.2" x2="355.2" y1="456.6035" y2="464.4035"/><line style="stroke: #A80036; stroke-width: 0.6000000238418579;" x1="330.6" x2="355.2" y1="464.4035" y2="464.4035"/><polygon fill="#A80036" points="336.6,462.0035,330.6,464.4035,336.6,466.8035,334.2,464.4035" style="stroke: #A80036; stroke-width: 0.6000000238418579;"/><text fill="#000000" font-family="sans-serif" font-size="7.8" font-weight="bold" lengthAdjust="spacingAndGlyphs" textLength="10.8" x="334.2" y="453.7582">10</text><text fill="#000000" font-family="sans-serif" font-size="7.8" lengthAdjust="spacingAndGlyphs" textLength="63.6" x="347.4" y="453.7582">Update Event log</text><path d="M333,472.2035 L333,496.2035 L457.2,496.2035 L457.2,478.2035 L451.2,472.2035 L333,472.2035 " fill="#ADD8E6" filter="url(#fuo6ky85qqf4m)" style="stroke: #A80036; stroke-width: 0.6000000238418579;"/><path d="M451.2,472.2035 L451.2,478.2035 L457.2,478.2035 L451.2,472.2035 " fill="#ADD8E6" style="stroke: #A80036; stroke-width: 0.6000000238418579;"/><text fill="#000000" font-family="sans-serif" font-size="7.8" lengthAdjust="spacingAndGlyphs" textLength="82.2" x="336.6" y="482.7446">Log ERROR Messages.</text><text fill="#000000" font-family="sans-serif" font-size="7.8" lengthAdjust="spacingAndGlyphs" textLength="111.6" x="336.6" y="491.9309">Update Event log with ERROR.</text><path d="M19.8,504.9762 L19.8,556.5762 L318.6,556.5762 L318.6,510.9762 L312.6,504.9762 L19.8,504.9762 " fill="#FFFF00" filter="url(#fuo6ky85qqf4m)" style="stroke: #A80036; stroke-width: 0.6000000238418579;"/><path d="M312.6,504.9762 L312.6,510.9762 L318.6,510.9762 L312.6,504.9762 " fill="#FFFF00" style="stroke: #A80036; stroke-width: 0.6000000238418579;"/><text fill="#000000" font-family="sans-serif" font-size="7.8" lengthAdjust="spacingAndGlyphs" textLength="2.4" x="23.4" y="515.5172">{</text><text fill="#000000" font-family="sans-serif" font-size="7.8" lengthAdjust="spacingAndGlyphs" textLength="41.4" x="28.2" y="524.7035">"status": 0,</text><text fill="#000000" font-family="sans-serif" font-size="7.8" lengthAdjust="spacingAndGlyphs" textLength="281.4" x="28.2" y="533.8899">"code": "(ERROR response code eg. '404' - Defined in swagger definition))",</text><text fill="#000000" font-family="sans-serif" font-size="7.8" lengthAdjust="spacingAndGlyphs" textLength="72" x="28.2" y="543.0762">"message": "string"</text><text fill="#000000" font-family="sans-serif" font-size="7.8" lengthAdjust="spacingAndGlyphs" textLength="2.4" x="23.4" y="552.2625">}</text><polygon fill="#A80036" points="190.2,572.5078,184.2,574.9078,190.2,577.3078,187.8,574.9078" style="stroke: #A80036; stroke-width: 0.6000000238418579;"/><line style="stroke: #A80036; stroke-width: 0.6000000238418579;" x1="186.6" x2="326.4" y1="574.9078" y2="574.9078"/><text fill="#000000" font-family="sans-serif" font-size="7.8" font-weight="bold" lengthAdjust="spacingAndGlyphs" textLength="10.8" x="193.8" y="572.2489">11</text><text fill="#000000" font-family="sans-serif" font-size="7.8" lengthAdjust="spacingAndGlyphs" textLength="51.6" x="207" y="572.2489">Return ERROR</text><!--
@startuml
title 6.1.3. getSettlementWindowByParams GET: /settlementWindows

autonumber


actor "Hub Employee" as OPERATOR

boundary "Settlement Service API" as SSAPI
control "Settlement Window" as SETTLEWINDOW
entity "Settlement DAO" as SETTLE_DAO

database "Central Store" as DB

box "Central HUB" #LightPink
    participant OPERATOR
end box

box "Settlement Service" #LightGreen
    participant SSAPI
    participant SETTLEWINDOW
    participant SETTLE_DAO
end box

box "Central Services" #LightYellow
    participant DB
end box


group Request Settlement Window properties
    activate OPERATOR
    note right of OPERATOR #Yellow
        GET:: /settlementWindows{id}
            state={state}
            &fromDateTime={dateTime}
            &toDateTime={dateTime}
            &participantId={id}
    end note
    OPERATOR -> SSAPI: GET - /settlementWindows/{id}
    deactivate OPERATOR
    activate SSAPI
    SSAPI -> SETTLEWINDOW: Request settlementWindow(s)
    deactivate SSAPI
    activate SETTLEWINDOW
        SETTLEWINDOW -> SETTLE_DAO: Request settlementWindow(s)
        activate SETTLE_DAO
                SETTLE_DAO -> DB: Fetch settlementWindow(s) \n<color #FF0000><b>Error code:</b> 2001</color>
            activate DB
                hnote over DB #LightYellow
                settlementWindow
                settlementWindowStateChange
                end hnote
                SETTLE_DAO <- - DB: Return settlementWindow(s)
            deactivate DB
    alt Return settlementWindow(s) as per parameters
        SETTLEWINDOW <- SETTLE_DAO: Successful - settlementWindow(s) found
        SSAPI <- SETTLEWINDOW: Operation successfully completed
        deactivate SETTLEWINDOW
        activate SSAPI
        note left of SSAPI #Yellow
            {
              "id": 0,
              "reason": "string",
              "state": "string",
              "createdDate": "string"            }
        end note
        OPERATOR <- SSAPI: Return results
        deactivate SSAPI
    else <color #FF0000><b>Settlement Window not found</b></color>
        SETTLE_DAO -> SSAPI: settlement window not found - Return ERROR
        deactivate SETTLE_DAO
        activate SSAPI
        SSAPI -> SSAPI: Update Event log
        note right of SSAPI #LightBlue
            Log ERROR Messages.
            Update Event log with ERROR.
        end note
        note left of SSAPI #Yellow
            {
              "status": 0,
              "code": "(ERROR response code eg. '404' - Defined in swagger definition))",
              "message": "string"
            }
        end note
        OPERATOR <- SSAPI: Return ERROR
        deactivate SSAPI
    end
end
@enduml

PlantUML version 1.2018.01(Sun Jan 28 20:08:22 SAST 2018)
(GPL source distribution)
Java Runtime: OpenJDK Runtime Environment
JVM: OpenJDK 64-Bit Server VM
Java Version: 1.8.0_152-release-1136-b29
Operating System: Mac OS X
OS Version: 10.13.6
Default Encoding: UTF-8
Language: en
Country: ZA
--></g></svg>