<?xml version="1.0" encoding="UTF-8" standalone="no"?><svg xmlns="http://www.w3.org/2000/svg" xmlns:xlink="http://www.w3.org/1999/xlink" contentScriptType="application/ecmascript" contentStyleType="text/css" height="634.2px" preserveAspectRatio="none" style="width:904px;height:634px;" version="1.1" viewBox="0 0 904 634" width="904.8px" zoomAndPan="magnify"><defs><filter height="300%" id="fqer07ezlst8f" width="300%" x="-1" y="-1"><feGaussianBlur result="blurOut" stdDeviation="1.2000000476837158"/><feColorMatrix in="blurOut" result="blurOut2" type="matrix" values="0 0 0 0 0 0 0 0 0 0 0 0 0 0 0 0 0 0 .4 0"/><feOffset dx="2.4000000953674316" dy="2.4000000953674316" in="blurOut2" result="blurOut3"/><feBlend in="SourceGraphic" in2="blurOut3" mode="normal"/></filter></defs><g><text fill="#000000" font-family="sans-serif" font-size="8.4" font-weight="bold" lengthAdjust="spacingAndGlyphs" textLength="253.2" x="326.4" y="14.1211">6.1.1. getSettlementWindowById GET: /settlementWindows</text><rect fill="#FFB6C1" height="607.1215" style="stroke: #A80036; stroke-width: 0.6000000238418579;" width="67.2" x="17.4" y="20.693"/><text fill="#000000" font-family="sans-serif" font-size="7.8" font-weight="bold" lengthAdjust="spacingAndGlyphs" textLength="48.6" x="26.7" y="28.234">Central HUB</text><rect fill="#90EE90" height="607.1215" style="stroke: #A80036; stroke-width: 0.6000000238418579;" width="411.9" x="244.5" y="20.693"/><text fill="#000000" font-family="sans-serif" font-size="7.8" font-weight="bold" lengthAdjust="spacingAndGlyphs" textLength="74.4" x="413.25" y="28.234">Settlement Service</text><rect fill="#FFFFE0" height="607.1215" style="stroke: #A80036; stroke-width: 0.6000000238418579;" width="68.4" x="786.6" y="20.693"/><text fill="#000000" font-family="sans-serif" font-size="7.8" font-weight="bold" lengthAdjust="spacingAndGlyphs" textLength="64.8" x="788.4" y="28.234">Central Services</text><rect fill="#FFFFFF" filter="url(#fqer07ezlst8f)" height="17.5863" style="stroke: #A80036; stroke-width: 0.6000000238418579;" width="6" x="291" y="139.1449"/><rect fill="#FFFFFF" filter="url(#fqer07ezlst8f)" height="17.5863" style="stroke: #A80036; stroke-width: 0.6000000238418579;" width="6" x="291" y="297.6082"/><rect fill="#FFFFFF" filter="url(#fqer07ezlst8f)" height="75.7453" style="stroke: #A80036; stroke-width: 0.6000000238418579;" width="6" x="291" y="420.4582"/><rect fill="#FFFFFF" filter="url(#fqer07ezlst8f)" height="140.877" style="stroke: #A80036; stroke-width: 0.6000000238418579;" width="6" x="444.6" y="156.7313"/><rect fill="#FFFFFF" filter="url(#fqer07ezlst8f)" height="231.5543" style="stroke: #A80036; stroke-width: 0.6000000238418579;" width="6" x="616.8" y="188.9039"/><rect fill="#FFFFFF" filter="url(#fqer07ezlst8f)" height="46.9453" style="stroke: #A80036; stroke-width: 0.6000000238418579;" width="6" x="817.8" y="215.4902"/><rect fill="#FFFFFF" filter="url(#fqer07ezlst8f)" height="473.1492" style="stroke: #000000; stroke-width: 1.2000000476837158;" width="890.4" x="7.8" y="92.5723"/><rect fill="#FFFFFF" filter="url(#fqer07ezlst8f)" height="395.6039" style="stroke: #000000; stroke-width: 1.2000000476837158;" width="878.4" x="13.8" y="165.9176"/><rect fill="#FFFFFF" height="162.6363" style="stroke: none; stroke-width: 0.6000000238418579;" width="878.4" x="13.8" y="398.8852"/><line style="stroke: #A80036; stroke-width: 0.6000000238418579; stroke-dasharray: 5.0,5.0;" x1="51" x2="51" y1="82.3723" y2="575.9215"/><line style="stroke: #A80036; stroke-width: 0.6000000238418579; stroke-dasharray: 5.0,5.0;" x1="293.7" x2="293.7" y1="82.3723" y2="575.9215"/><line style="stroke: #A80036; stroke-width: 0.6000000238418579; stroke-dasharray: 5.0,5.0;" x1="447.3" x2="447.3" y1="82.3723" y2="575.9215"/><line style="stroke: #A80036; stroke-width: 0.6000000238418579; stroke-dasharray: 5.0,5.0;" x1="619.8" x2="619.8" y1="82.3723" y2="575.9215"/><line style="stroke: #A80036; stroke-width: 0.6000000238418579; stroke-dasharray: 5.0,5.0;" x1="820.8" x2="820.8" y1="82.3723" y2="575.9215"/><text fill="#000000" font-family="sans-serif" font-size="8.4" lengthAdjust="spacingAndGlyphs" textLength="58.8" x="19.8" y="80.6004">Hub Employee</text><ellipse cx="51" cy="38.2793" fill="#FEFECE" filter="url(#fqer07ezlst8f)" rx="4.8" ry="4.8" style="stroke: #A80036; stroke-width: 1.2000000476837158;"/><path d="M51,43.0793 L51,59.2793 M43.2,47.8793 L58.8,47.8793 M51,59.2793 L43.2,68.2793 M51,59.2793 L58.8,68.2793 " fill="none" filter="url(#fqer07ezlst8f)" style="stroke: #A80036; stroke-width: 1.2000000476837158;"/><text fill="#000000" font-family="sans-serif" font-size="8.4" lengthAdjust="spacingAndGlyphs" textLength="58.8" x="19.8" y="583.4426">Hub Employee</text><ellipse cx="51" cy="591.2145" fill="#FEFECE" filter="url(#fqer07ezlst8f)" rx="4.8" ry="4.8" style="stroke: #A80036; stroke-width: 1.2000000476837158;"/><path d="M51,596.0145 L51,612.2145 M43.2,600.8145 L58.8,600.8145 M51,612.2145 L43.2,621.2145 M51,612.2145 L58.8,621.2145 " fill="none" filter="url(#fqer07ezlst8f)" style="stroke: #A80036; stroke-width: 1.2000000476837158;"/><text fill="#000000" font-family="sans-serif" font-size="8.4" lengthAdjust="spacingAndGlyphs" textLength="90.6" x="246.9" y="80.6004">Settlement Service API</text><path d="M281.7,55.6793 L281.7,70.0793 M281.7,62.8793 L291.9,62.8793 " fill="none" filter="url(#fqer07ezlst8f)" style="stroke: #A80036; stroke-width: 1.2000000476837158;"/><ellipse cx="299.1" cy="62.8793" fill="#FEFECE" filter="url(#fqer07ezlst8f)" rx="7.2" ry="7.2" style="stroke: #A80036; stroke-width: 1.2000000476837158;"/><text fill="#000000" font-family="sans-serif" font-size="8.4" lengthAdjust="spacingAndGlyphs" textLength="90.6" x="246.9" y="583.4426">Settlement Service API</text><path d="M281.7,587.6145 L281.7,602.0145 M281.7,594.8145 L291.9,594.8145 " fill="none" filter="url(#fqer07ezlst8f)" style="stroke: #A80036; stroke-width: 1.2000000476837158;"/><ellipse cx="299.1" cy="594.8145" fill="#FEFECE" filter="url(#fqer07ezlst8f)" rx="7.2" ry="7.2" style="stroke: #A80036; stroke-width: 1.2000000476837158;"/><text fill="#000000" font-family="sans-serif" font-size="8.4" lengthAdjust="spacingAndGlyphs" textLength="78.6" x="406.5" y="80.6004">Settlement Window</text><ellipse cx="447.6" cy="62.8793" fill="#FEFECE" filter="url(#fqer07ezlst8f)" rx="7.2" ry="7.2" style="stroke: #A80036; stroke-width: 1.2000000476837158;"/><polygon fill="#A80036" points="445.2,55.6793,448.8,52.6793,447.6,55.6793,448.8,58.6793,445.2,55.6793" style="stroke: #A80036; stroke-width: 0.6000000238418579;"/><text fill="#000000" font-family="sans-serif" font-size="8.4" lengthAdjust="spacingAndGlyphs" textLength="78.6" x="406.5" y="583.4426">Settlement Window</text><ellipse cx="447.6" cy="594.8145" fill="#FEFECE" filter="url(#fqer07ezlst8f)" rx="7.2" ry="7.2" style="stroke: #A80036; stroke-width: 1.2000000476837158;"/><polygon fill="#A80036" points="445.2,587.6145,448.8,584.6145,447.6,587.6145,448.8,590.6145,445.2,587.6145" style="stroke: #A80036; stroke-width: 0.6000000238418579;"/><text fill="#000000" font-family="sans-serif" font-size="8.4" lengthAdjust="spacingAndGlyphs" textLength="64.8" x="585.6" y="80.6004">Settlement DAO</text><ellipse cx="619.8" cy="62.8793" fill="#FEFECE" filter="url(#fqer07ezlst8f)" rx="7.2" ry="7.2" style="stroke: #A80036; stroke-width: 1.2000000476837158;"/><line style="stroke: #A80036; stroke-width: 1.2000000476837158;" x1="612.6" x2="627" y1="71.2793" y2="71.2793"/><text fill="#000000" font-family="sans-serif" font-size="8.4" lengthAdjust="spacingAndGlyphs" textLength="64.8" x="585.6" y="583.4426">Settlement DAO</text><ellipse cx="619.8" cy="594.8145" fill="#FEFECE" filter="url(#fqer07ezlst8f)" rx="7.2" ry="7.2" style="stroke: #A80036; stroke-width: 1.2000000476837158;"/><line style="stroke: #A80036; stroke-width: 1.2000000476837158;" x1="612.6" x2="627" y1="603.2145" y2="603.2145"/><text fill="#000000" font-family="sans-serif" font-size="8.4" lengthAdjust="spacingAndGlyphs" textLength="54" x="792" y="80.6004">Central Store</text><path d="M810,50.8793 C810,44.8793 820.8,44.8793 820.8,44.8793 C820.8,44.8793 831.6,44.8793 831.6,50.8793 L831.6,66.4793 C831.6,72.4793 820.8,72.4793 820.8,72.4793 C820.8,72.4793 810,72.4793 810,66.4793 L810,50.8793 " fill="#FEFECE" filter="url(#fqer07ezlst8f)" style="stroke: #000000; stroke-width: 0.9000000357627869;"/><path d="M810,50.8793 C810,56.8793 820.8,56.8793 820.8,56.8793 C820.8,56.8793 831.6,56.8793 831.6,50.8793 " fill="none" style="stroke: #000000; stroke-width: 0.9000000357627869;"/><text fill="#000000" font-family="sans-serif" font-size="8.4" lengthAdjust="spacingAndGlyphs" textLength="54" x="792" y="583.4426">Central Store</text><path d="M810,591.2145 C810,585.2145 820.8,585.2145 820.8,585.2145 C820.8,585.2145 831.6,585.2145 831.6,591.2145 L831.6,606.8145 C831.6,612.8145 820.8,612.8145 820.8,612.8145 C820.8,612.8145 810,612.8145 810,606.8145 L810,591.2145 " fill="#FEFECE" filter="url(#fqer07ezlst8f)" style="stroke: #000000; stroke-width: 0.9000000357627869;"/><path d="M810,591.2145 C810,597.2145 820.8,597.2145 820.8,597.2145 C820.8,597.2145 831.6,597.2145 831.6,591.2145 " fill="none" style="stroke: #000000; stroke-width: 0.9000000357627869;"/><rect fill="#FFFFFF" filter="url(#fqer07ezlst8f)" height="17.5863" style="stroke: #A80036; stroke-width: 0.6000000238418579;" width="6" x="291" y="139.1449"/><rect fill="#FFFFFF" filter="url(#fqer07ezlst8f)" height="17.5863" style="stroke: #A80036; stroke-width: 0.6000000238418579;" width="6" x="291" y="297.6082"/><rect fill="#FFFFFF" filter="url(#fqer07ezlst8f)" height="75.7453" style="stroke: #A80036; stroke-width: 0.6000000238418579;" width="6" x="291" y="420.4582"/><rect fill="#FFFFFF" filter="url(#fqer07ezlst8f)" height="140.877" style="stroke: #A80036; stroke-width: 0.6000000238418579;" width="6" x="444.6" y="156.7313"/><rect fill="#FFFFFF" filter="url(#fqer07ezlst8f)" height="231.5543" style="stroke: #A80036; stroke-width: 0.6000000238418579;" width="6" x="616.8" y="188.9039"/><rect fill="#FFFFFF" filter="url(#fqer07ezlst8f)" height="46.9453" style="stroke: #A80036; stroke-width: 0.6000000238418579;" width="6" x="817.8" y="215.4902"/><path d="M7.8,92.5723 L192,92.5723 L192,96.7723 L186,102.7723 L7.8,102.7723 L7.8,92.5723 " fill="#EEEEEE" style="stroke: #000000; stroke-width: 0.6000000238418579;"/><rect fill="none" height="473.1492" style="stroke: #000000; stroke-width: 1.2000000476837158;" width="890.4" x="7.8" y="92.5723"/><text fill="#000000" font-family="sans-serif" font-size="7.8" font-weight="bold" lengthAdjust="spacingAndGlyphs" textLength="157.2" x="16.8" y="100.7133">Request Settlement Window properties</text><path d="M54,105.9586 L54,120.9586 L186,120.9586 L186,111.9586 L180,105.9586 L54,105.9586 " fill="#FFFF00" filter="url(#fqer07ezlst8f)" style="stroke: #A80036; stroke-width: 0.6000000238418579;"/><path d="M180,105.9586 L180,111.9586 L186,111.9586 L180,105.9586 " fill="#FFFF00" style="stroke: #A80036; stroke-width: 0.6000000238418579;"/><text fill="#000000" font-family="sans-serif" font-size="7.8" lengthAdjust="spacingAndGlyphs" textLength="119.4" x="57.6" y="116.4996">GET:: '/settlementWindows/{id}'</text><polygon fill="#A80036" points="283.8,136.7449,289.8,139.1449,283.8,141.5449,286.2,139.1449" style="stroke: #A80036; stroke-width: 0.6000000238418579;"/><line style="stroke: #A80036; stroke-width: 0.6000000238418579;" x1="51" x2="287.4" y1="139.1449" y2="139.1449"/><text fill="#000000" font-family="sans-serif" font-size="7.8" font-weight="bold" lengthAdjust="spacingAndGlyphs" textLength="5.4" x="55.2" y="136.4859">1</text><text fill="#000000" font-family="sans-serif" font-size="7.8" lengthAdjust="spacingAndGlyphs" textLength="220.8" x="63" y="136.4859">API call Settlement Service to get settlement window detail</text><polygon fill="#A80036" points="437.4,154.3313,443.4,156.7313,437.4,159.1313,439.8,156.7313" style="stroke: #A80036; stroke-width: 0.6000000238418579;"/><line style="stroke: #A80036; stroke-width: 0.6000000238418579;" x1="294" x2="441" y1="156.7313" y2="156.7313"/><text fill="#000000" font-family="sans-serif" font-size="7.8" font-weight="bold" lengthAdjust="spacingAndGlyphs" textLength="5.4" x="298.2" y="154.0723">2</text><text fill="#000000" font-family="sans-serif" font-size="7.8" lengthAdjust="spacingAndGlyphs" textLength="86.4" x="306" y="154.0723">Get settlement window</text><path d="M13.8,165.9176 L51,165.9176 L51,170.1176 L45,176.1176 L13.8,176.1176 L13.8,165.9176 " fill="#EEEEEE" style="stroke: #000000; stroke-width: 0.6000000238418579;"/><rect fill="none" height="395.6039" style="stroke: #000000; stroke-width: 1.2000000476837158;" width="878.4" x="13.8" y="165.9176"/><text fill="#000000" font-family="sans-serif" font-size="7.8" font-weight="bold" lengthAdjust="spacingAndGlyphs" textLength="10.2" x="22.8" y="174.0586">alt</text><polygon fill="#A80036" points="609.6,186.5039,615.6,188.9039,609.6,191.3039,612,188.9039" style="stroke: #A80036; stroke-width: 0.6000000238418579;"/><line style="stroke: #A80036; stroke-width: 0.6000000238418579;" x1="450.6" x2="613.2" y1="188.9039" y2="188.9039"/><text fill="#000000" font-family="sans-serif" font-size="7.8" font-weight="bold" lengthAdjust="spacingAndGlyphs" textLength="5.4" x="454.8" y="186.2449">3</text><text fill="#000000" font-family="sans-serif" font-size="7.8" lengthAdjust="spacingAndGlyphs" textLength="144.6" x="462.6" y="186.2449">Get settlementWindow&lt;id&gt; properties</text><polygon fill="#A80036" points="810.6,213.0902,816.6,215.4902,810.6,217.8902,813,215.4902" style="stroke: #A80036; stroke-width: 0.6000000238418579;"/><line style="stroke: #A80036; stroke-width: 0.6000000238418579;" x1="622.8" x2="814.2" y1="215.4902" y2="215.4902"/><text fill="#000000" font-family="sans-serif" font-size="7.8" font-weight="bold" lengthAdjust="spacingAndGlyphs" textLength="5.4" x="627" y="208.4244">4</text><text fill="#000000" font-family="sans-serif" font-size="7.8" lengthAdjust="spacingAndGlyphs" textLength="164.4" x="634.8" y="203.8313">Get settlementWindow&lt; properties from DB</text><text fill="#FF0000" font-family="sans-serif" font-size="7.8" font-weight="bold" lengthAdjust="spacingAndGlyphs" textLength="43.8" x="634.8" y="213.0176">Error code:</text><text fill="#FF0000" font-family="sans-serif" font-size="7.8" lengthAdjust="spacingAndGlyphs" textLength="19.2" x="681" y="213.0176">2001</text><polygon fill="#FFFFE0" filter="url(#fqer07ezlst8f)" points="761.4,223.6629,880.2,223.6629,886.2,235.0629,880.2,246.4629,761.4,246.4629,755.4,235.0629,761.4,223.6629" style="stroke: #A80036; stroke-width: 0.6000000238418579;"/><text fill="#000000" font-family="sans-serif" font-size="7.8" lengthAdjust="spacingAndGlyphs" textLength="69.6" x="762.6" y="233.6039">settlementWindow</text><text fill="#000000" font-family="sans-serif" font-size="7.8" lengthAdjust="spacingAndGlyphs" textLength="116.4" x="762.6" y="242.7902">settlementWindowStateChange</text><polygon fill="#A80036" points="629.4,260.0356,623.4,262.4356,629.4,264.8356,627,262.4356" style="stroke: #A80036; stroke-width: 0.6000000238418579;"/><line style="stroke: #A80036; stroke-width: 0.6000000238418579;" x1="625.8" x2="820.2" y1="262.4356" y2="262.4356"/><text fill="#000000" font-family="sans-serif" font-size="7.8" font-weight="bold" lengthAdjust="spacingAndGlyphs" textLength="5.4" x="633" y="259.7766">5</text><text fill="#000000" font-family="sans-serif" font-size="7.8" lengthAdjust="spacingAndGlyphs" textLength="169.8" x="640.8" y="259.7766">Return properties for settlementWindow&lt;id&gt;</text><polygon fill="#A80036" points="457.2,277.6219,451.2,280.0219,457.2,282.4219,454.8,280.0219" style="stroke: #A80036; stroke-width: 0.6000000238418579;"/><line style="stroke: #A80036; stroke-width: 0.6000000238418579;" x1="453.6" x2="616.2" y1="280.0219" y2="280.0219"/><text fill="#000000" font-family="sans-serif" font-size="7.8" font-weight="bold" lengthAdjust="spacingAndGlyphs" textLength="5.4" x="460.8" y="277.3629">6</text><text fill="#000000" font-family="sans-serif" font-size="7.8" lengthAdjust="spacingAndGlyphs" textLength="144" x="468.6" y="277.3629">Successful - settlementWindow found</text><polygon fill="#A80036" points="303.6,295.2082,297.6,297.6082,303.6,300.0082,301.2,297.6082" style="stroke: #A80036; stroke-width: 0.6000000238418579;"/><line style="stroke: #A80036; stroke-width: 0.6000000238418579;" x1="300" x2="447" y1="297.6082" y2="297.6082"/><text fill="#000000" font-family="sans-serif" font-size="7.8" font-weight="bold" lengthAdjust="spacingAndGlyphs" textLength="5.4" x="307.2" y="294.9492">7</text><text fill="#000000" font-family="sans-serif" font-size="7.8" lengthAdjust="spacingAndGlyphs" textLength="128.4" x="315" y="294.9492">Operation successfully completed</text><polygon fill="#A80036" points="57.6,312.7945,51.6,315.1945,57.6,317.5945,55.2,315.1945" style="stroke: #A80036; stroke-width: 0.6000000238418579;"/><line style="stroke: #A80036; stroke-width: 0.6000000238418579;" x1="54" x2="293.4" y1="315.1945" y2="315.1945"/><text fill="#000000" font-family="sans-serif" font-size="7.8" font-weight="bold" lengthAdjust="spacingAndGlyphs" textLength="5.4" x="61.2" y="312.5356">8</text><text fill="#000000" font-family="sans-serif" font-size="7.8" lengthAdjust="spacingAndGlyphs" textLength="52.8" x="69" y="312.5356">Return results</text><path d="M183,323.1809 L183,393.3809 L288.6,393.3809 L288.6,329.1809 L282.6,323.1809 L183,323.1809 " fill="#FFFF00" filter="url(#fqer07ezlst8f)" style="stroke: #A80036; stroke-width: 0.6000000238418579;"/><path d="M282.6,323.1809 L282.6,329.1809 L288.6,329.1809 L282.6,323.1809 " fill="#FFFF00" style="stroke: #A80036; stroke-width: 0.6000000238418579;"/><text fill="#000000" font-family="sans-serif" font-size="7.8" lengthAdjust="spacingAndGlyphs" textLength="2.4" x="186.6" y="333.7219">{</text><text fill="#000000" font-family="sans-serif" font-size="7.8" lengthAdjust="spacingAndGlyphs" textLength="25.2" x="191.4" y="342.9082">"id": 0,</text><text fill="#000000" font-family="sans-serif" font-size="7.8" lengthAdjust="spacingAndGlyphs" textLength="66.6" x="191.4" y="352.0945">"reason": "string",</text><text fill="#000000" font-family="sans-serif" font-size="7.8" lengthAdjust="spacingAndGlyphs" textLength="60" x="191.4" y="361.2809">"state": "string",</text><text fill="#000000" font-family="sans-serif" font-size="7.8" lengthAdjust="spacingAndGlyphs" textLength="86.4" x="191.4" y="370.4672">"createdDate": "string",</text><text fill="#000000" font-family="sans-serif" font-size="7.8" lengthAdjust="spacingAndGlyphs" textLength="88.2" x="191.4" y="379.6535">"changedDate": "string"</text><text fill="#000000" font-family="sans-serif" font-size="7.8" lengthAdjust="spacingAndGlyphs" textLength="2.4" x="186.6" y="388.8399">}</text><line style="stroke: #000000; stroke-width: 0.6000000238418579; stroke-dasharray: 2.0,2.0;" x1="13.8" x2="892.2" y1="399.4852" y2="399.4852"/><text fill="#000000" font-family="sans-serif" font-size="6.6" font-weight="bold" lengthAdjust="spacingAndGlyphs" textLength="2.4" x="16.8" y="405.866">[</text><text fill="#FF0000" font-family="sans-serif" font-size="6.6" font-weight="bold" lengthAdjust="spacingAndGlyphs" textLength="99" x="19.2" y="405.866">Settlement Window not found</text><text fill="#000000" font-family="sans-serif" font-size="6.6" font-weight="bold" lengthAdjust="spacingAndGlyphs" textLength="2.4" x="118.2" y="405.866">]</text><polygon fill="#A80036" points="303.6,418.0582,297.6,420.4582,303.6,422.8582,301.2,420.4582" style="stroke: #A80036; stroke-width: 0.6000000238418579;"/><line style="stroke: #A80036; stroke-width: 0.6000000238418579;" x1="300" x2="619.2" y1="420.4582" y2="420.4582"/><text fill="#000000" font-family="sans-serif" font-size="7.8" font-weight="bold" lengthAdjust="spacingAndGlyphs" textLength="5.4" x="307.2" y="417.7992">9</text><text fill="#000000" font-family="sans-serif" font-size="7.8" lengthAdjust="spacingAndGlyphs" textLength="172.2" x="315" y="417.7992">settlement window not found - Return ERROR</text><line style="stroke: #A80036; stroke-width: 0.6000000238418579;" x1="297" x2="322.2" y1="438.2309" y2="438.2309"/><line style="stroke: #A80036; stroke-width: 0.6000000238418579;" x1="322.2" x2="322.2" y1="438.2309" y2="446.0309"/><line style="stroke: #A80036; stroke-width: 0.6000000238418579;" x1="297.6" x2="322.2" y1="446.0309" y2="446.0309"/><polygon fill="#A80036" points="303.6,443.6309,297.6,446.0309,303.6,448.4309,301.2,446.0309" style="stroke: #A80036; stroke-width: 0.6000000238418579;"/><text fill="#000000" font-family="sans-serif" font-size="7.8" font-weight="bold" lengthAdjust="spacingAndGlyphs" textLength="10.8" x="301.2" y="435.3856">10</text><text fill="#000000" font-family="sans-serif" font-size="7.8" lengthAdjust="spacingAndGlyphs" textLength="63.6" x="314.4" y="435.3856">Update Event log</text><path d="M300,453.8309 L300,477.8309 L424.2,477.8309 L424.2,459.8309 L418.2,453.8309 L300,453.8309 " fill="#ADD8E6" filter="url(#fqer07ezlst8f)" style="stroke: #A80036; stroke-width: 0.6000000238418579;"/><path d="M418.2,453.8309 L418.2,459.8309 L424.2,459.8309 L418.2,453.8309 " fill="#ADD8E6" style="stroke: #A80036; stroke-width: 0.6000000238418579;"/><text fill="#000000" font-family="sans-serif" font-size="7.8" lengthAdjust="spacingAndGlyphs" textLength="82.2" x="303.6" y="464.3719">Log ERROR Messages.</text><text fill="#000000" font-family="sans-serif" font-size="7.8" lengthAdjust="spacingAndGlyphs" textLength="111.6" x="303.6" y="473.5582">Update Event log with ERROR.</text><polygon fill="#A80036" points="57.6,493.8035,51.6,496.2035,57.6,498.6035,55.2,496.2035" style="stroke: #A80036; stroke-width: 0.6000000238418579;"/><line style="stroke: #A80036; stroke-width: 0.6000000238418579;" x1="54" x2="293.4" y1="496.2035" y2="496.2035"/><text fill="#000000" font-family="sans-serif" font-size="7.8" font-weight="bold" lengthAdjust="spacingAndGlyphs" textLength="10.8" x="61.2" y="493.5446">11</text><text fill="#000000" font-family="sans-serif" font-size="7.8" lengthAdjust="spacingAndGlyphs" textLength="51.6" x="74.4" y="493.5446">Return ERROR</text><path d="M112.2,504.1899 L112.2,555.7899 L288.6,555.7899 L288.6,510.1899 L282.6,504.1899 L112.2,504.1899 " fill="#FFFF00" filter="url(#fqer07ezlst8f)" style="stroke: #A80036; stroke-width: 0.6000000238418579;"/><path d="M282.6,504.1899 L282.6,510.1899 L288.6,510.1899 L282.6,504.1899 " fill="#FFFF00" style="stroke: #A80036; stroke-width: 0.6000000238418579;"/><text fill="#000000" font-family="sans-serif" font-size="7.8" lengthAdjust="spacingAndGlyphs" textLength="2.4" x="115.8" y="514.7309">{</text><text fill="#000000" font-family="sans-serif" font-size="7.8" lengthAdjust="spacingAndGlyphs" textLength="41.4" x="120.6" y="523.9172">"status": 0,</text><text fill="#000000" font-family="sans-serif" font-size="7.8" lengthAdjust="spacingAndGlyphs" textLength="159" x="120.6" y="533.1035">"code": "MISSING_REQUIRED_PARAMETER",</text><text fill="#000000" font-family="sans-serif" font-size="7.8" lengthAdjust="spacingAndGlyphs" textLength="72" x="120.6" y="542.2899">"message": "string"</text><text fill="#000000" font-family="sans-serif" font-size="7.8" lengthAdjust="spacingAndGlyphs" textLength="2.4" x="115.8" y="551.4762">}</text><!--
@startuml
title 6.1.1. getSettlementWindowById GET: /settlementWindows

autonumber



actor "Hub Employee" as OPERATOR

boundary "Settlement Service API" as SSAPI
control "Settlement Window" as SETTLEWINDOW
entity "Settlement DAO" as SETTLE_DAO

database "Central Store" as DB

box "Central HUB" #LightPink
    participant OPERATOR
end box

box "Settlement Service" #LightGreen
    participant SSAPI
    participant SETTLEWINDOW
    participant SETTLE_DAO
end box

box "Central Services" #LightYellow
    participant DB
end box


group Request Settlement Window properties
    note right of OPERATOR #Yellow
        GET:: '/settlementWindows/{id}'
    end note
    OPERATOR -> SSAPI: API call Settlement Service to get settlement window detail
    activate SSAPI
    SSAPI -> SETTLEWINDOW: Get settlement window
    deactivate SSAPI
    activate SETTLEWINDOW
    alt
        SETTLEWINDOW -> SETTLE_DAO: Get settlementWindow<id> properties
        activate SETTLE_DAO
                SETTLE_DAO -> DB: Get settlementWindow< properties from DB \n<color #FF0000><b>Error code:</b> 2001</color>
            activate DB
                hnote over DB #LightYellow
                settlementWindow
                settlementWindowStateChange
                end hnote
                SETTLE_DAO <- DB: Return properties for settlementWindow<id>
            deactivate DB
        SETTLEWINDOW <- SETTLE_DAO: Successful - settlementWindow found
        SSAPI <- SETTLEWINDOW: Operation successfully completed
        deactivate SETTLEWINDOW
        activate SSAPI
        OPERATOR <- SSAPI: Return results
        note left of SSAPI #Yellow
            {
              "id": 0,
              "reason": "string",
              "state": "string",
              "createdDate": "string",
              "changedDate": "string"
            }
        end note
        deactivate SSAPI
    else <color #FF0000><b>Settlement Window not found</b></color>
        SETTLE_DAO -> SSAPI: settlement window not found - Return ERROR
        deactivate SETTLE_DAO
        activate SSAPI
        SSAPI -> SSAPI: Update Event log
        note right of SSAPI #LightBlue
            Log ERROR Messages.
            Update Event log with ERROR.
        end note
        OPERATOR <- SSAPI: Return ERROR
        deactivate SSAPI
        note left of SSAPI #Yellow
            {
              "status": 0,
              "code": "MISSING_REQUIRED_PARAMETER",
              "message": "string"
            }
        end note
    end
end
@enduml

PlantUML version 1.2018.01(Sun Jan 28 20:08:22 SAST 2018)
(GPL source distribution)
Java Runtime: OpenJDK Runtime Environment
JVM: OpenJDK 64-Bit Server VM
Java Version: 1.8.0_152-release-1136-b29
Operating System: Mac OS X
OS Version: 10.13.6
Default Encoding: UTF-8
Language: en
Country: ZA
--></g></svg>