<?xml version="1.0" encoding="UTF-8" standalone="no"?><svg xmlns="http://www.w3.org/2000/svg" xmlns:xlink="http://www.w3.org/1999/xlink" contentScriptType="application/ecmascript" contentStyleType="text/css" height="845.6px" preserveAspectRatio="none" style="width:1202px;height:845px;" version="1.1" viewBox="0 0 1202 845" width="1202.4px" zoomAndPan="magnify"><defs><filter height="300%" id="f12r8hyze4dlom" width="300%" x="-1" y="-1"><feGaussianBlur result="blurOut" stdDeviation="1.600000023841858"/><feColorMatrix in="blurOut" result="blurOut2" type="matrix" values="0 0 0 0 0 0 0 0 0 0 0 0 0 0 0 0 0 0 .4 0"/><feOffset dx="3.200000047683716" dy="3.200000047683716" in="blurOut2" result="blurOut3"/><feBlend in="SourceGraphic" in2="blurOut3" mode="normal"/></filter></defs><g><text fill="#000000" font-family="sans-serif" font-size="11.2" font-weight="bold" lengthAdjust="spacingAndGlyphs" textLength="337.6" x="433.2" y="18.8281">6.1.1. getSettlementWindowById GET: /settlementWindows</text><rect fill="#FFB6C1" height="809.4953" style="stroke: #A80036; stroke-width: 0.800000011920929;" width="89.6" x="23.2" y="27.5906"/><text fill="#000000" font-family="sans-serif" font-size="10.4" font-weight="bold" lengthAdjust="spacingAndGlyphs" textLength="64.8" x="35.6" y="37.6453">Central HUB</text><rect fill="#90EE90" height="809.4953" style="stroke: #A80036; stroke-width: 0.800000011920929;" width="549.2" x="326" y="27.5906"/><text fill="#000000" font-family="sans-serif" font-size="10.4" font-weight="bold" lengthAdjust="spacingAndGlyphs" textLength="99.2" x="551" y="37.6453">Settlement Service</text><rect fill="#FFFFE0" height="809.4953" style="stroke: #A80036; stroke-width: 0.800000011920929;" width="255.2" x="876.8" y="27.5906"/><text fill="#000000" font-family="sans-serif" font-size="10.4" font-weight="bold" lengthAdjust="spacingAndGlyphs" textLength="86.4" x="961.2" y="37.6453">Central Services</text><rect fill="#FFFFFF" filter="url(#f12r8hyze4dlom)" height="23.4484" style="stroke: #A80036; stroke-width: 0.800000011920929;" width="8" x="388" y="185.5266"/><rect fill="#FFFFFF" filter="url(#f12r8hyze4dlom)" height="23.4484" style="stroke: #A80036; stroke-width: 0.800000011920929;" width="8" x="388" y="396.8109"/><rect fill="#FFFFFF" filter="url(#f12r8hyze4dlom)" height="100.9938" style="stroke: #A80036; stroke-width: 0.800000011920929;" width="8" x="388" y="560.6109"/><rect fill="#FFFFFF" filter="url(#f12r8hyze4dlom)" height="187.8359" style="stroke: #A80036; stroke-width: 0.800000011920929;" width="8" x="592.8" y="208.975"/><rect fill="#FFFFFF" filter="url(#f12r8hyze4dlom)" height="308.7391" style="stroke: #A80036; stroke-width: 0.800000011920929;" width="8" x="822.4" y="251.8719"/><rect fill="#FFFFFF" filter="url(#f12r8hyze4dlom)" height="62.5938" style="stroke: #A80036; stroke-width: 0.800000011920929;" width="8" x="1086.4" y="287.3203"/><rect fill="#FFFFFF" filter="url(#f12r8hyze4dlom)" height="630.8656" style="stroke: #000000; stroke-width: 1.600000023841858;" width="1183.2" x="10.4" y="123.4297"/><rect fill="#FFFFFF" filter="url(#f12r8hyze4dlom)" height="527.4719" style="stroke: #000000; stroke-width: 1.600000023841858;" width="1167.2" x="18.4" y="221.2234"/><rect fill="#FFFFFF" height="216.8484" style="stroke: none; stroke-width: 0.800000011920929;" width="1167.2" x="18.4" y="531.8469"/><line style="stroke: #A80036; stroke-width: 0.800000011920929; stroke-dasharray: 5.0,5.0;" x1="68" x2="68" y1="109.8297" y2="767.8953"/><line style="stroke: #A80036; stroke-width: 0.800000011920929; stroke-dasharray: 5.0,5.0;" x1="391.6" x2="391.6" y1="109.8297" y2="767.8953"/><line style="stroke: #A80036; stroke-width: 0.800000011920929; stroke-dasharray: 5.0,5.0;" x1="596.4" x2="596.4" y1="109.8297" y2="767.8953"/><line style="stroke: #A80036; stroke-width: 0.800000011920929; stroke-dasharray: 5.0,5.0;" x1="826.4" x2="826.4" y1="109.8297" y2="767.8953"/><line style="stroke: #A80036; stroke-width: 0.800000011920929; stroke-dasharray: 5.0,5.0;" x1="933.6" x2="933.6" y1="109.8297" y2="767.8953"/><line style="stroke: #A80036; stroke-width: 0.800000011920929; stroke-dasharray: 5.0,5.0;" x1="1090.4" x2="1090.4" y1="109.8297" y2="767.8953"/><text fill="#000000" font-family="sans-serif" font-size="11.2" lengthAdjust="spacingAndGlyphs" textLength="78.4" x="26.4" y="107.4672">Hub Employee</text><ellipse cx="68" cy="51.0391" fill="#FEFECE" filter="url(#f12r8hyze4dlom)" rx="6.4" ry="6.4" style="stroke: #A80036; stroke-width: 1.600000023841858;"/><path d="M68,57.4391 L68,79.0391 M57.6,63.8391 L78.4,63.8391 M68,79.0391 L57.6,91.0391 M68,79.0391 L78.4,91.0391 " fill="none" filter="url(#f12r8hyze4dlom)" style="stroke: #A80036; stroke-width: 1.600000023841858;"/><text fill="#000000" font-family="sans-serif" font-size="11.2" lengthAdjust="spacingAndGlyphs" textLength="78.4" x="26.4" y="777.9234">Hub Employee</text><ellipse cx="68" cy="788.2859" fill="#FEFECE" filter="url(#f12r8hyze4dlom)" rx="6.4" ry="6.4" style="stroke: #A80036; stroke-width: 1.600000023841858;"/><path d="M68,794.6859 L68,816.2859 M57.6,801.0859 L78.4,801.0859 M68,816.2859 L57.6,828.2859 M68,816.2859 L78.4,828.2859 " fill="none" filter="url(#f12r8hyze4dlom)" style="stroke: #A80036; stroke-width: 1.600000023841858;"/><text fill="#000000" font-family="sans-serif" font-size="11.2" lengthAdjust="spacingAndGlyphs" textLength="120.8" x="329.2" y="107.4672">Settlement Service API</text><path d="M375.6,74.2391 L375.6,93.4391 M375.6,83.8391 L389.2,83.8391 " fill="none" filter="url(#f12r8hyze4dlom)" style="stroke: #A80036; stroke-width: 1.600000023841858;"/><ellipse cx="398.8" cy="83.8391" fill="#FEFECE" filter="url(#f12r8hyze4dlom)" rx="9.6" ry="9.6" style="stroke: #A80036; stroke-width: 1.600000023841858;"/><text fill="#000000" font-family="sans-serif" font-size="11.2" lengthAdjust="spacingAndGlyphs" textLength="120.8" x="329.2" y="777.9234">Settlement Service API</text><path d="M375.6,783.4859 L375.6,802.6859 M375.6,793.0859 L389.2,793.0859 " fill="none" filter="url(#f12r8hyze4dlom)" style="stroke: #A80036; stroke-width: 1.600000023841858;"/><ellipse cx="398.8" cy="793.0859" fill="#FEFECE" filter="url(#f12r8hyze4dlom)" rx="9.6" ry="9.6" style="stroke: #A80036; stroke-width: 1.600000023841858;"/><text fill="#000000" font-family="sans-serif" font-size="11.2" lengthAdjust="spacingAndGlyphs" textLength="104.8" x="542" y="107.4672">Settlement Window</text><ellipse cx="596.8" cy="83.8391" fill="#FEFECE" filter="url(#f12r8hyze4dlom)" rx="9.6" ry="9.6" style="stroke: #A80036; stroke-width: 1.600000023841858;"/><polygon fill="#A80036" points="593.6,74.2391,598.4,70.2391,596.8,74.2391,598.4,78.2391,593.6,74.2391" style="stroke: #A80036; stroke-width: 0.800000011920929;"/><text fill="#000000" font-family="sans-serif" font-size="11.2" lengthAdjust="spacingAndGlyphs" textLength="104.8" x="542" y="777.9234">Settlement Window</text><ellipse cx="596.8" cy="793.0859" fill="#FEFECE" filter="url(#f12r8hyze4dlom)" rx="9.6" ry="9.6" style="stroke: #A80036; stroke-width: 1.600000023841858;"/><polygon fill="#A80036" points="593.6,783.4859,598.4,779.4859,596.8,783.4859,598.4,787.4859,593.6,783.4859" style="stroke: #A80036; stroke-width: 0.800000011920929;"/><text fill="#000000" font-family="sans-serif" font-size="11.2" lengthAdjust="spacingAndGlyphs" textLength="86.4" x="780.8" y="107.4672">Settlement DAO</text><ellipse cx="826.4" cy="83.8391" fill="#FEFECE" filter="url(#f12r8hyze4dlom)" rx="9.6" ry="9.6" style="stroke: #A80036; stroke-width: 1.600000023841858;"/><line style="stroke: #A80036; stroke-width: 1.600000023841858;" x1="816.8" x2="836" y1="95.0391" y2="95.0391"/><text fill="#000000" font-family="sans-serif" font-size="11.2" lengthAdjust="spacingAndGlyphs" textLength="86.4" x="780.8" y="777.9234">Settlement DAO</text><ellipse cx="826.4" cy="793.0859" fill="#FEFECE" filter="url(#f12r8hyze4dlom)" rx="9.6" ry="9.6" style="stroke: #A80036; stroke-width: 1.600000023841858;"/><line style="stroke: #A80036; stroke-width: 1.600000023841858;" x1="816.8" x2="836" y1="804.2859" y2="804.2859"/><text fill="#000000" font-family="sans-serif" font-size="11.2" lengthAdjust="spacingAndGlyphs" textLength="102.4" x="880" y="107.4672">Central Service API</text><path d="M917.2,74.2391 L917.2,93.4391 M917.2,83.8391 L930.8,83.8391 " fill="none" filter="url(#f12r8hyze4dlom)" style="stroke: #A80036; stroke-width: 1.600000023841858;"/><ellipse cx="940.4" cy="83.8391" fill="#FEFECE" filter="url(#f12r8hyze4dlom)" rx="9.6" ry="9.6" style="stroke: #A80036; stroke-width: 1.600000023841858;"/><text fill="#000000" font-family="sans-serif" font-size="11.2" lengthAdjust="spacingAndGlyphs" textLength="102.4" x="880" y="777.9234">Central Service API</text><path d="M917.2,783.4859 L917.2,802.6859 M917.2,793.0859 L930.8,793.0859 " fill="none" filter="url(#f12r8hyze4dlom)" style="stroke: #A80036; stroke-width: 1.600000023841858;"/><ellipse cx="940.4" cy="793.0859" fill="#FEFECE" filter="url(#f12r8hyze4dlom)" rx="9.6" ry="9.6" style="stroke: #A80036; stroke-width: 1.600000023841858;"/><text fill="#000000" font-family="sans-serif" font-size="11.2" lengthAdjust="spacingAndGlyphs" textLength="72" x="1052" y="107.4672">Central Store</text><path d="M1076,67.8391 C1076,59.8391 1090.4,59.8391 1090.4,59.8391 C1090.4,59.8391 1104.8,59.8391 1104.8,67.8391 L1104.8,88.6391 C1104.8,96.6391 1090.4,96.6391 1090.4,96.6391 C1090.4,96.6391 1076,96.6391 1076,88.6391 L1076,67.8391 " fill="#FEFECE" filter="url(#f12r8hyze4dlom)" style="stroke: #000000; stroke-width: 1.2000000178813934;"/><path d="M1076,67.8391 C1076,75.8391 1090.4,75.8391 1090.4,75.8391 C1090.4,75.8391 1104.8,75.8391 1104.8,67.8391 " fill="none" style="stroke: #000000; stroke-width: 1.2000000178813934;"/><text fill="#000000" font-family="sans-serif" font-size="11.2" lengthAdjust="spacingAndGlyphs" textLength="72" x="1052" y="777.9234">Central Store</text><path d="M1076,788.2859 C1076,780.2859 1090.4,780.2859 1090.4,780.2859 C1090.4,780.2859 1104.8,780.2859 1104.8,788.2859 L1104.8,809.0859 C1104.8,817.0859 1090.4,817.0859 1090.4,817.0859 C1090.4,817.0859 1076,817.0859 1076,809.0859 L1076,788.2859 " fill="#FEFECE" filter="url(#f12r8hyze4dlom)" style="stroke: #000000; stroke-width: 1.2000000178813934;"/><path d="M1076,788.2859 C1076,796.2859 1090.4,796.2859 1090.4,796.2859 C1090.4,796.2859 1104.8,796.2859 1104.8,788.2859 " fill="none" style="stroke: #000000; stroke-width: 1.2000000178813934;"/><rect fill="#FFFFFF" filter="url(#f12r8hyze4dlom)" height="23.4484" style="stroke: #A80036; stroke-width: 0.800000011920929;" width="8" x="388" y="185.5266"/><rect fill="#FFFFFF" filter="url(#f12r8hyze4dlom)" height="23.4484" style="stroke: #A80036; stroke-width: 0.800000011920929;" width="8" x="388" y="396.8109"/><rect fill="#FFFFFF" filter="url(#f12r8hyze4dlom)" height="100.9938" style="stroke: #A80036; stroke-width: 0.800000011920929;" width="8" x="388" y="560.6109"/><rect fill="#FFFFFF" filter="url(#f12r8hyze4dlom)" height="187.8359" style="stroke: #A80036; stroke-width: 0.800000011920929;" width="8" x="592.8" y="208.975"/><rect fill="#FFFFFF" filter="url(#f12r8hyze4dlom)" height="308.7391" style="stroke: #A80036; stroke-width: 0.800000011920929;" width="8" x="822.4" y="251.8719"/><rect fill="#FFFFFF" filter="url(#f12r8hyze4dlom)" height="62.5938" style="stroke: #A80036; stroke-width: 0.800000011920929;" width="8" x="1086.4" y="287.3203"/><path d="M10.4,123.4297 L256,123.4297 L256,129.0297 L248,137.0297 L10.4,137.0297 L10.4,123.4297 " fill="#EEEEEE" style="stroke: #000000; stroke-width: 0.800000011920929;"/><rect fill="none" height="630.8656" style="stroke: #000000; stroke-width: 1.600000023841858;" width="1183.2" x="10.4" y="123.4297"/><text fill="#000000" font-family="sans-serif" font-size="10.4" font-weight="bold" lengthAdjust="spacingAndGlyphs" textLength="209.6" x="22.4" y="134.2844">Request Settlement Window properties</text><path d="M72,141.2781 L72,161.2781 L248,161.2781 L248,149.2781 L240,141.2781 L72,141.2781 " fill="#FFFF00" filter="url(#f12r8hyze4dlom)" style="stroke: #A80036; stroke-width: 0.800000011920929;"/><path d="M240,141.2781 L240,149.2781 L248,149.2781 L240,141.2781 " fill="#FFFF00" style="stroke: #A80036; stroke-width: 0.800000011920929;"/><text fill="#000000" font-family="sans-serif" font-size="10.4" lengthAdjust="spacingAndGlyphs" textLength="159.2" x="76.8" y="155.3328">GET:: '/settlementWindows/{id}'</text><polygon fill="#A80036" points="378.4,182.3266,386.4,185.5266,378.4,188.7266,381.6,185.5266" style="stroke: #A80036; stroke-width: 0.800000011920929;"/><line style="stroke: #A80036; stroke-width: 0.800000011920929;" x1="68" x2="383.2" y1="185.5266" y2="185.5266"/><text fill="#000000" font-family="sans-serif" font-size="10.4" font-weight="bold" lengthAdjust="spacingAndGlyphs" textLength="7.2" x="73.6" y="181.9813">1</text><text fill="#000000" font-family="sans-serif" font-size="10.4" lengthAdjust="spacingAndGlyphs" textLength="294.4" x="84" y="181.9813">API call Settlement Service to get settlement window detail</text><polygon fill="#A80036" points="583.2,205.775,591.2,208.975,583.2,212.175,586.4,208.975" style="stroke: #A80036; stroke-width: 0.800000011920929;"/><line style="stroke: #A80036; stroke-width: 0.800000011920929;" x1="392" x2="588" y1="208.975" y2="208.975"/><text fill="#000000" font-family="sans-serif" font-size="10.4" font-weight="bold" lengthAdjust="spacingAndGlyphs" textLength="7.2" x="397.6" y="205.4297">2</text><text fill="#000000" font-family="sans-serif" font-size="10.4" lengthAdjust="spacingAndGlyphs" textLength="115.2" x="408" y="205.4297">Get settlement window</text><path d="M18.4,221.2234 L68,221.2234 L68,226.8234 L60,234.8234 L18.4,234.8234 L18.4,221.2234 " fill="#EEEEEE" style="stroke: #000000; stroke-width: 0.800000011920929;"/><rect fill="none" height="527.4719" style="stroke: #000000; stroke-width: 1.600000023841858;" width="1167.2" x="18.4" y="221.2234"/><text fill="#000000" font-family="sans-serif" font-size="10.4" font-weight="bold" lengthAdjust="spacingAndGlyphs" textLength="13.6" x="30.4" y="232.0781">alt</text><polygon fill="#A80036" points="812.8,248.6719,820.8,251.8719,812.8,255.0719,816,251.8719" style="stroke: #A80036; stroke-width: 0.800000011920929;"/><line style="stroke: #A80036; stroke-width: 0.800000011920929;" x1="600.8" x2="817.6" y1="251.8719" y2="251.8719"/><text fill="#000000" font-family="sans-serif" font-size="10.4" font-weight="bold" lengthAdjust="spacingAndGlyphs" textLength="7.2" x="606.4" y="248.3266">3</text><text fill="#000000" font-family="sans-serif" font-size="10.4" lengthAdjust="spacingAndGlyphs" textLength="192.8" x="616.8" y="248.3266">Get settlementWindow&lt;id&gt; properties</text><polygon fill="#A80036" points="1076.8,284.1203,1084.8,287.3203,1076.8,290.5203,1080,287.3203" style="stroke: #A80036; stroke-width: 0.800000011920929;"/><line style="stroke: #A80036; stroke-width: 0.800000011920929;" x1="830.4" x2="1081.6" y1="287.3203" y2="287.3203"/><text fill="#000000" font-family="sans-serif" font-size="10.4" font-weight="bold" lengthAdjust="spacingAndGlyphs" textLength="7.2" x="836" y="277.8992">4</text><text fill="#000000" font-family="sans-serif" font-size="10.4" lengthAdjust="spacingAndGlyphs" textLength="219.2" x="846.4" y="271.775">Get settlementWindow&lt; properties from DB</text><text fill="#FF0000" font-family="sans-serif" font-size="10.4" font-weight="bold" lengthAdjust="spacingAndGlyphs" textLength="58.4" x="846.4" y="284.0234">Error code:</text><text fill="#FF0000" font-family="sans-serif" font-size="10.4" lengthAdjust="spacingAndGlyphs" textLength="25.6" x="908" y="284.0234">2001</text><polygon fill="#FFFFE0" filter="url(#f12r8hyze4dlom)" points="1011.2,298.2172,1169.6,298.2172,1177.6,313.4172,1169.6,328.6172,1011.2,328.6172,1003.2,313.4172,1011.2,298.2172" style="stroke: #A80036; stroke-width: 0.800000011920929;"/><text fill="#000000" font-family="sans-serif" font-size="10.4" lengthAdjust="spacingAndGlyphs" textLength="92.8" x="1012.8" y="311.4719">settlementWindow</text><text fill="#000000" font-family="sans-serif" font-size="10.4" lengthAdjust="spacingAndGlyphs" textLength="155.2" x="1012.8" y="323.7203">settlementWindowStateChange</text><polygon fill="#A80036" points="839.2,346.7141,831.2,349.9141,839.2,353.1141,836,349.9141" style="stroke: #A80036; stroke-width: 0.800000011920929;"/><line style="stroke: #A80036; stroke-width: 0.800000011920929;" x1="834.4" x2="1089.6" y1="349.9141" y2="349.9141"/><text fill="#000000" font-family="sans-serif" font-size="10.4" font-weight="bold" lengthAdjust="spacingAndGlyphs" textLength="7.2" x="844" y="346.3688">5</text><text fill="#000000" font-family="sans-serif" font-size="10.4" lengthAdjust="spacingAndGlyphs" textLength="226.4" x="854.4" y="346.3688">Return properties for settlementWindow&lt;id&gt;</text><polygon fill="#A80036" points="609.6,370.1625,601.6,373.3625,609.6,376.5625,606.4,373.3625" style="stroke: #A80036; stroke-width: 0.800000011920929;"/><line style="stroke: #A80036; stroke-width: 0.800000011920929;" x1="604.8" x2="821.6" y1="373.3625" y2="373.3625"/><text fill="#000000" font-family="sans-serif" font-size="10.4" font-weight="bold" lengthAdjust="spacingAndGlyphs" textLength="7.2" x="614.4" y="369.8172">6</text><text fill="#000000" font-family="sans-serif" font-size="10.4" lengthAdjust="spacingAndGlyphs" textLength="192" x="624.8" y="369.8172">Successful - settlementWindow found</text><polygon fill="#A80036" points="404.8,393.6109,396.8,396.8109,404.8,400.0109,401.6,396.8109" style="stroke: #A80036; stroke-width: 0.800000011920929;"/><line style="stroke: #A80036; stroke-width: 0.800000011920929;" x1="400" x2="596" y1="396.8109" y2="396.8109"/><text fill="#000000" font-family="sans-serif" font-size="10.4" font-weight="bold" lengthAdjust="spacingAndGlyphs" textLength="7.2" x="409.6" y="393.2656">7</text><text fill="#000000" font-family="sans-serif" font-size="10.4" lengthAdjust="spacingAndGlyphs" textLength="171.2" x="420" y="393.2656">Operation successfully completed</text><polygon fill="#A80036" points="76.8,417.0594,68.8,420.2594,76.8,423.4594,73.6,420.2594" style="stroke: #A80036; stroke-width: 0.800000011920929;"/><line style="stroke: #A80036; stroke-width: 0.800000011920929;" x1="72" x2="391.2" y1="420.2594" y2="420.2594"/><text fill="#000000" font-family="sans-serif" font-size="10.4" font-weight="bold" lengthAdjust="spacingAndGlyphs" textLength="7.2" x="81.6" y="416.7141">8</text><text fill="#000000" font-family="sans-serif" font-size="10.4" lengthAdjust="spacingAndGlyphs" textLength="70.4" x="92" y="416.7141">Return results</text><path d="M244,430.9078 L244,524.5078 L384.8,524.5078 L384.8,438.9078 L376.8,430.9078 L244,430.9078 " fill="#FFFF00" filter="url(#f12r8hyze4dlom)" style="stroke: #A80036; stroke-width: 0.800000011920929;"/><path d="M376.8,430.9078 L376.8,438.9078 L384.8,438.9078 L376.8,430.9078 " fill="#FFFF00" style="stroke: #A80036; stroke-width: 0.800000011920929;"/><text fill="#000000" font-family="sans-serif" font-size="10.4" lengthAdjust="spacingAndGlyphs" textLength="3.2" x="248.8" y="444.9625">{</text><text fill="#000000" font-family="sans-serif" font-size="10.4" lengthAdjust="spacingAndGlyphs" textLength="33.6" x="255.2" y="457.2109">"id": 0,</text><text fill="#000000" font-family="sans-serif" font-size="10.4" lengthAdjust="spacingAndGlyphs" textLength="88.8" x="255.2" y="469.4594">"reason": "string",</text><text fill="#000000" font-family="sans-serif" font-size="10.4" lengthAdjust="spacingAndGlyphs" textLength="80" x="255.2" y="481.7078">"state": "string",</text><text fill="#000000" font-family="sans-serif" font-size="10.4" lengthAdjust="spacingAndGlyphs" textLength="115.2" x="255.2" y="493.9563">"createdDate": "string",</text><text fill="#000000" font-family="sans-serif" font-size="10.4" lengthAdjust="spacingAndGlyphs" textLength="117.6" x="255.2" y="506.2047">"changedDate": "string"</text><text fill="#000000" font-family="sans-serif" font-size="10.4" lengthAdjust="spacingAndGlyphs" textLength="3.2" x="248.8" y="518.4531">}</text><line style="stroke: #000000; stroke-width: 0.800000011920929; stroke-dasharray: 2.0,2.0;" x1="18.4" x2="1185.6" y1="532.6469" y2="532.6469"/><text fill="#000000" font-family="sans-serif" font-size="8.8" font-weight="bold" lengthAdjust="spacingAndGlyphs" textLength="3.2" x="22.4" y="541.1547">[</text><text fill="#FF0000" font-family="sans-serif" font-size="8.8" font-weight="bold" lengthAdjust="spacingAndGlyphs" textLength="132" x="25.6" y="541.1547">Settlement Window not found</text><text fill="#000000" font-family="sans-serif" font-size="8.8" font-weight="bold" lengthAdjust="spacingAndGlyphs" textLength="3.2" x="157.6" y="541.1547">]</text><polygon fill="#A80036" points="404.8,557.4109,396.8,560.6109,404.8,563.8109,401.6,560.6109" style="stroke: #A80036; stroke-width: 0.800000011920929;"/><line style="stroke: #A80036; stroke-width: 0.800000011920929;" x1="400" x2="825.6" y1="560.6109" y2="560.6109"/><text fill="#000000" font-family="sans-serif" font-size="10.4" font-weight="bold" lengthAdjust="spacingAndGlyphs" textLength="7.2" x="409.6" y="557.0656">9</text><text fill="#000000" font-family="sans-serif" font-size="10.4" lengthAdjust="spacingAndGlyphs" textLength="229.6" x="420" y="557.0656">settlement window not found - Return ERROR</text><line style="stroke: #A80036; stroke-width: 0.800000011920929;" x1="396" x2="429.6" y1="584.3078" y2="584.3078"/><line style="stroke: #A80036; stroke-width: 0.800000011920929;" x1="429.6" x2="429.6" y1="584.3078" y2="594.7078"/><line style="stroke: #A80036; stroke-width: 0.800000011920929;" x1="396.8" x2="429.6" y1="594.7078" y2="594.7078"/><polygon fill="#A80036" points="404.8,591.5078,396.8,594.7078,404.8,597.9078,401.6,594.7078" style="stroke: #A80036; stroke-width: 0.800000011920929;"/><text fill="#000000" font-family="sans-serif" font-size="10.4" font-weight="bold" lengthAdjust="spacingAndGlyphs" textLength="14.4" x="401.6" y="580.5141">10</text><text fill="#000000" font-family="sans-serif" font-size="10.4" lengthAdjust="spacingAndGlyphs" textLength="84.8" x="419.2" y="580.5141">Update Event log</text><path d="M400,605.1078 L400,637.1078 L565.6,637.1078 L565.6,613.1078 L557.6,605.1078 L400,605.1078 " fill="#ADD8E6" filter="url(#f12r8hyze4dlom)" style="stroke: #A80036; stroke-width: 0.800000011920929;"/><path d="M557.6,605.1078 L557.6,613.1078 L565.6,613.1078 L557.6,605.1078 " fill="#ADD8E6" style="stroke: #A80036; stroke-width: 0.800000011920929;"/><text fill="#000000" font-family="sans-serif" font-size="10.4" lengthAdjust="spacingAndGlyphs" textLength="109.6" x="404.8" y="619.1625">Log ERROR Messages.</text><text fill="#000000" font-family="sans-serif" font-size="10.4" lengthAdjust="spacingAndGlyphs" textLength="148.8" x="404.8" y="631.4109">Update Event log with ERROR.</text><polygon fill="#A80036" points="76.8,658.4047,68.8,661.6047,76.8,664.8047,73.6,661.6047" style="stroke: #A80036; stroke-width: 0.800000011920929;"/><line style="stroke: #A80036; stroke-width: 0.800000011920929;" x1="72" x2="391.2" y1="661.6047" y2="661.6047"/><text fill="#000000" font-family="sans-serif" font-size="10.4" font-weight="bold" lengthAdjust="spacingAndGlyphs" textLength="14.4" x="81.6" y="658.0594">11</text><text fill="#000000" font-family="sans-serif" font-size="10.4" lengthAdjust="spacingAndGlyphs" textLength="68.8" x="99.2" y="658.0594">Return ERROR</text><path d="M149.6,672.2531 L149.6,741.0531 L384.8,741.0531 L384.8,680.2531 L376.8,672.2531 L149.6,672.2531 " fill="#FFFF00" filter="url(#f12r8hyze4dlom)" style="stroke: #A80036; stroke-width: 0.800000011920929;"/><path d="M376.8,672.2531 L376.8,680.2531 L384.8,680.2531 L376.8,672.2531 " fill="#FFFF00" style="stroke: #A80036; stroke-width: 0.800000011920929;"/><text fill="#000000" font-family="sans-serif" font-size="10.4" lengthAdjust="spacingAndGlyphs" textLength="3.2" x="154.4" y="686.3078">{</text><text fill="#000000" font-family="sans-serif" font-size="10.4" lengthAdjust="spacingAndGlyphs" textLength="55.2" x="160.8" y="698.5563">"status": 0,</text><text fill="#000000" font-family="sans-serif" font-size="10.4" lengthAdjust="spacingAndGlyphs" textLength="212" x="160.8" y="710.8047">"code": "MISSING_REQUIRED_PARAMETER",</text><text fill="#000000" font-family="sans-serif" font-size="10.4" lengthAdjust="spacingAndGlyphs" textLength="96" x="160.8" y="723.0531">"message": "string"</text><text fill="#000000" font-family="sans-serif" font-size="10.4" lengthAdjust="spacingAndGlyphs" textLength="3.2" x="154.4" y="735.3016">}</text><!--
@startuml
title 6.1.1. getSettlementWindowById GET: /settlementWindows

autonumber



actor "Hub Employee" as OPERATOR

boundary "Settlement Service API" as SSAPI
control "Settlement Window" as SETTLEWINDOW
entity "Settlement DAO" as SETTLE_DAO

boundary "Central Service API" as CSAPI
database "Central Store" as DB

box "Central HUB" #LightPink
    participant OPERATOR
end box

box "Settlement Service" #LightGreen
    participant SSAPI
    participant SETTLEWINDOW
    participant SETTLE_DAO
end box

box "Central Services" #LightYellow
    participant CSAPI
    participant DB
end box


group Request Settlement Window properties
    note right of OPERATOR #Yellow
        GET:: '/settlementWindows/{id}'
    end note
    OPERATOR -> SSAPI: API call Settlement Service to get settlement window detail
    activate SSAPI
    SSAPI -> SETTLEWINDOW: Get settlement window
    deactivate SSAPI
    activate SETTLEWINDOW
    alt
        SETTLEWINDOW -> SETTLE_DAO: Get settlementWindow<id> properties
        activate SETTLE_DAO
                SETTLE_DAO -> DB: Get settlementWindow< properties from DB \n<color #FF0000><b>Error code:</b> 2001</color>
            activate DB
                hnote over DB #LightYellow
                settlementWindow
                settlementWindowStateChange
                end hnote
                SETTLE_DAO <- DB: Return properties for settlementWindow<id>
            deactivate DB
        SETTLEWINDOW <- SETTLE_DAO: Successful - settlementWindow found
        SSAPI <- SETTLEWINDOW: Operation successfully completed
        deactivate SETTLEWINDOW
        activate SSAPI
        OPERATOR <- SSAPI: Return results
        note left of SSAPI #Yellow
            {
              "id": 0,
              "reason": "string",
              "state": "string",
              "createdDate": "string",
              "changedDate": "string"
            }
        end note
        deactivate SSAPI
    else <color #FF0000><b>Settlement Window not found</b></color>
        SETTLE_DAO -> SSAPI: settlement window not found - Return ERROR
        deactivate SETTLE_DAO
        activate SSAPI
        SSAPI -> SSAPI: Update Event log
        note right of SSAPI #LightBlue
            Log ERROR Messages.
            Update Event log with ERROR.
        end note
        OPERATOR <- SSAPI: Return ERROR
        deactivate SSAPI
        note left of SSAPI #Yellow
            {
              "status": 0,
              "code": "MISSING_REQUIRED_PARAMETER",
              "message": "string"
            }
        end note
    end
end
@enduml

PlantUML version 1.2018.01(Sun Jan 28 20:08:22 SAST 2018)
(GPL source distribution)
Java Runtime: OpenJDK Runtime Environment
JVM: OpenJDK 64-Bit Server VM
Java Version: 1.8.0_152-release-1136-b29
Operating System: Mac OS X
OS Version: 10.13.6
Default Encoding: UTF-8
Language: en
Country: ZA
--></g></svg>