<?xml version="1.0" encoding="UTF-8" standalone="no"?><svg xmlns="http://www.w3.org/2000/svg" xmlns:xlink="http://www.w3.org/1999/xlink" contentScriptType="application/ecmascript" contentStyleType="text/css" height="621px" preserveAspectRatio="none" style="width:741px;height:621px;" version="1.1" viewBox="0 0 741 621" width="741px" zoomAndPan="magnify"><defs><filter height="300%" id="f1e9mcxjslxefv" width="300%" x="-1" y="-1"><feGaussianBlur result="blurOut" stdDeviation="1.2000000476837158"/><feColorMatrix in="blurOut" result="blurOut2" type="matrix" values="0 0 0 0 0 0 0 0 0 0 0 0 0 0 0 0 0 0 .4 0"/><feOffset dx="2.4000000953674316" dy="2.4000000953674316" in="blurOut2" result="blurOut3"/><feBlend in="SourceGraphic" in2="blurOut3" mode="normal"/></filter></defs><g><text fill="#000000" font-family="sans-serif" font-size="8.4" font-weight="bold" lengthAdjust="spacingAndGlyphs" textLength="169.2" x="286.2" y="14.1211">Returns a Settlement Window as per id</text><rect fill="#FFB6C1" height="594.2942" style="stroke: #A80036; stroke-width: 0.6000000238418579;" width="67.2" x="150" y="20.693"/><text fill="#000000" font-family="sans-serif" font-size="7.8" font-weight="bold" lengthAdjust="spacingAndGlyphs" textLength="48.6" x="159.3" y="28.234">Central HUB</text><rect fill="#90EE90" height="594.2942" style="stroke: #A80036; stroke-width: 0.6000000238418579;" width="286.5" x="277.5" y="20.693"/><text fill="#000000" font-family="sans-serif" font-size="7.8" font-weight="bold" lengthAdjust="spacingAndGlyphs" textLength="74.4" x="383.55" y="28.234">Settlement Service</text><rect fill="#FFFFE0" height="594.2942" style="stroke: #A80036; stroke-width: 0.6000000238418579;" width="68.4" x="623.4" y="20.693"/><text fill="#000000" font-family="sans-serif" font-size="7.8" font-weight="bold" lengthAdjust="spacingAndGlyphs" textLength="64.8" x="625.2" y="28.234">Central Services</text><rect fill="#FFFFFF" filter="url(#f1e9mcxjslxefv)" height="455.3356" style="stroke: #A80036; stroke-width: 0.6000000238418579;" width="6" x="180.6" y="88.3723"/><rect fill="#FFFFFF" filter="url(#f1e9mcxjslxefv)" height="428.1492" style="stroke: #A80036; stroke-width: 0.6000000238418579;" width="6" x="324" y="115.5586"/><rect fill="#FFFFFF" filter="url(#f1e9mcxjslxefv)" height="274.4859" style="stroke: #A80036; stroke-width: 0.6000000238418579;" width="6" x="524.4" y="133.1449"/><rect fill="#FFFFFF" filter="url(#f1e9mcxjslxefv)" height="92.877" style="stroke: #A80036; stroke-width: 0.6000000238418579;" width="6" x="654.6" y="159.7313"/><rect fill="#FFFFFF" filter="url(#f1e9mcxjslxefv)" height="460.3219" style="stroke: #000000; stroke-width: 1.2000000476837158;" width="726" x="7.8" y="92.5723"/><rect fill="#FFFFFF" filter="url(#f1e9mcxjslxefv)" height="286.8996" style="stroke: #000000; stroke-width: 1.2000000476837158;" width="553.8" x="13.8" y="261.7945"/><rect fill="#FFFFFF" height="162.6363" style="stroke: none; stroke-width: 0.6000000238418579;" width="553.8" x="13.8" y="386.0578"/><line style="stroke: #A80036; stroke-width: 0.6000000238418579; stroke-dasharray: 5.0,5.0;" x1="183.6" x2="183.6" y1="82.3723" y2="563.0942"/><line style="stroke: #A80036; stroke-width: 0.6000000238418579; stroke-dasharray: 5.0,5.0;" x1="326.7" x2="326.7" y1="82.3723" y2="563.0942"/><line style="stroke: #A80036; stroke-width: 0.6000000238418579; stroke-dasharray: 5.0,5.0;" x1="527.4" x2="527.4" y1="82.3723" y2="563.0942"/><line style="stroke: #A80036; stroke-width: 0.6000000238418579; stroke-dasharray: 5.0,5.0;" x1="657.6" x2="657.6" y1="82.3723" y2="563.0942"/><text fill="#000000" font-family="sans-serif" font-size="8.4" lengthAdjust="spacingAndGlyphs" textLength="58.8" x="152.4" y="80.6004">Hub Employee</text><ellipse cx="183.6" cy="38.2793" fill="#FEFECE" filter="url(#f1e9mcxjslxefv)" rx="4.8" ry="4.8" style="stroke: #A80036; stroke-width: 1.2000000476837158;"/><path d="M183.6,43.0793 L183.6,59.2793 M175.8,47.8793 L191.4,47.8793 M183.6,59.2793 L175.8,68.2793 M183.6,59.2793 L191.4,68.2793 " fill="none" filter="url(#f1e9mcxjslxefv)" style="stroke: #A80036; stroke-width: 1.2000000476837158;"/><text fill="#000000" font-family="sans-serif" font-size="8.4" lengthAdjust="spacingAndGlyphs" textLength="58.8" x="152.4" y="570.6153">Hub Employee</text><ellipse cx="183.6" cy="578.3871" fill="#FEFECE" filter="url(#f1e9mcxjslxefv)" rx="4.8" ry="4.8" style="stroke: #A80036; stroke-width: 1.2000000476837158;"/><path d="M183.6,583.1871 L183.6,599.3871 M175.8,587.9871 L191.4,587.9871 M183.6,599.3871 L175.8,608.3871 M183.6,599.3871 L191.4,608.3871 " fill="none" filter="url(#f1e9mcxjslxefv)" style="stroke: #A80036; stroke-width: 1.2000000476837158;"/><text fill="#000000" font-family="sans-serif" font-size="8.4" lengthAdjust="spacingAndGlyphs" textLength="90.6" x="279.9" y="80.6004">Settlement Service API</text><path d="M314.7,55.6793 L314.7,70.0793 M314.7,62.8793 L324.9,62.8793 " fill="none" filter="url(#f1e9mcxjslxefv)" style="stroke: #A80036; stroke-width: 1.2000000476837158;"/><ellipse cx="332.1" cy="62.8793" fill="#FEFECE" filter="url(#f1e9mcxjslxefv)" rx="7.2" ry="7.2" style="stroke: #A80036; stroke-width: 1.2000000476837158;"/><text fill="#000000" font-family="sans-serif" font-size="8.4" lengthAdjust="spacingAndGlyphs" textLength="90.6" x="279.9" y="570.6153">Settlement Service API</text><path d="M314.7,574.7871 L314.7,589.1871 M314.7,581.9871 L324.9,581.9871 " fill="none" filter="url(#f1e9mcxjslxefv)" style="stroke: #A80036; stroke-width: 1.2000000476837158;"/><ellipse cx="332.1" cy="581.9871" fill="#FEFECE" filter="url(#f1e9mcxjslxefv)" rx="7.2" ry="7.2" style="stroke: #A80036; stroke-width: 1.2000000476837158;"/><text fill="#000000" font-family="sans-serif" font-size="8.4" lengthAdjust="spacingAndGlyphs" textLength="64.8" x="493.2" y="80.6004">Settlement DAO</text><ellipse cx="527.4" cy="62.8793" fill="#FEFECE" filter="url(#f1e9mcxjslxefv)" rx="7.2" ry="7.2" style="stroke: #A80036; stroke-width: 1.2000000476837158;"/><line style="stroke: #A80036; stroke-width: 1.2000000476837158;" x1="520.2" x2="534.6" y1="71.2793" y2="71.2793"/><text fill="#000000" font-family="sans-serif" font-size="8.4" lengthAdjust="spacingAndGlyphs" textLength="64.8" x="493.2" y="570.6153">Settlement DAO</text><ellipse cx="527.4" cy="581.9871" fill="#FEFECE" filter="url(#f1e9mcxjslxefv)" rx="7.2" ry="7.2" style="stroke: #A80036; stroke-width: 1.2000000476837158;"/><line style="stroke: #A80036; stroke-width: 1.2000000476837158;" x1="520.2" x2="534.6" y1="590.3871" y2="590.3871"/><text fill="#000000" font-family="sans-serif" font-size="8.4" lengthAdjust="spacingAndGlyphs" textLength="54" x="628.8" y="80.6004">Central Store</text><path d="M646.8,50.8793 C646.8,44.8793 657.6,44.8793 657.6,44.8793 C657.6,44.8793 668.4,44.8793 668.4,50.8793 L668.4,66.4793 C668.4,72.4793 657.6,72.4793 657.6,72.4793 C657.6,72.4793 646.8,72.4793 646.8,66.4793 L646.8,50.8793 " fill="#FEFECE" filter="url(#f1e9mcxjslxefv)" style="stroke: #000000; stroke-width: 0.9000000357627869;"/><path d="M646.8,50.8793 C646.8,56.8793 657.6,56.8793 657.6,56.8793 C657.6,56.8793 668.4,56.8793 668.4,50.8793 " fill="none" style="stroke: #000000; stroke-width: 0.9000000357627869;"/><text fill="#000000" font-family="sans-serif" font-size="8.4" lengthAdjust="spacingAndGlyphs" textLength="54" x="628.8" y="570.6153">Central Store</text><path d="M646.8,578.3871 C646.8,572.3871 657.6,572.3871 657.6,572.3871 C657.6,572.3871 668.4,572.3871 668.4,578.3871 L668.4,593.9871 C668.4,599.9871 657.6,599.9871 657.6,599.9871 C657.6,599.9871 646.8,599.9871 646.8,593.9871 L646.8,578.3871 " fill="#FEFECE" filter="url(#f1e9mcxjslxefv)" style="stroke: #000000; stroke-width: 0.9000000357627869;"/><path d="M646.8,578.3871 C646.8,584.3871 657.6,584.3871 657.6,584.3871 C657.6,584.3871 668.4,584.3871 668.4,578.3871 " fill="none" style="stroke: #000000; stroke-width: 0.9000000357627869;"/><rect fill="#FFFFFF" filter="url(#f1e9mcxjslxefv)" height="455.3356" style="stroke: #A80036; stroke-width: 0.6000000238418579;" width="6" x="180.6" y="88.3723"/><rect fill="#FFFFFF" filter="url(#f1e9mcxjslxefv)" height="428.1492" style="stroke: #A80036; stroke-width: 0.6000000238418579;" width="6" x="324" y="115.5586"/><rect fill="#FFFFFF" filter="url(#f1e9mcxjslxefv)" height="274.4859" style="stroke: #A80036; stroke-width: 0.6000000238418579;" width="6" x="524.4" y="133.1449"/><rect fill="#FFFFFF" filter="url(#f1e9mcxjslxefv)" height="92.877" style="stroke: #A80036; stroke-width: 0.6000000238418579;" width="6" x="654.6" y="159.7313"/><path d="M7.8,92.5723 L192,92.5723 L192,96.7723 L186,102.7723 L7.8,102.7723 L7.8,92.5723 " fill="#EEEEEE" style="stroke: #000000; stroke-width: 0.6000000238418579;"/><rect fill="none" height="460.3219" style="stroke: #000000; stroke-width: 1.2000000476837158;" width="726" x="7.8" y="92.5723"/><text fill="#000000" font-family="sans-serif" font-size="7.8" font-weight="bold" lengthAdjust="spacingAndGlyphs" textLength="157.2" x="16.8" y="100.7133">Request Settlement Window properties</text><polygon fill="#A80036" points="316.8,113.1586,322.8,115.5586,316.8,117.9586,319.2,115.5586" style="stroke: #A80036; stroke-width: 0.6000000238418579;"/><line style="stroke: #A80036; stroke-width: 0.6000000238418579;" x1="186.6" x2="320.4" y1="115.5586" y2="115.5586"/><text fill="#000000" font-family="sans-serif" font-size="7.8" font-weight="bold" lengthAdjust="spacingAndGlyphs" textLength="5.4" x="190.8" y="112.8996">1</text><text fill="#000000" font-family="sans-serif" font-size="7.8" lengthAdjust="spacingAndGlyphs" textLength="118.2" x="198.6" y="112.8996">GET - /settlementWindows/{id}</text><polygon fill="#A80036" points="517.2,130.7449,523.2,133.1449,517.2,135.5449,519.6,133.1449" style="stroke: #A80036; stroke-width: 0.6000000238418579;"/><line style="stroke: #A80036; stroke-width: 0.6000000238418579;" x1="330" x2="520.8" y1="133.1449" y2="133.1449"/><text fill="#000000" font-family="sans-serif" font-size="7.8" font-weight="bold" lengthAdjust="spacingAndGlyphs" textLength="5.4" x="334.2" y="130.4859">2</text><text fill="#000000" font-family="sans-serif" font-size="7.8" lengthAdjust="spacingAndGlyphs" textLength="102" x="342" y="130.4859">Request settlementWindow</text><polygon fill="#A80036" points="647.4,157.3313,653.4,159.7313,647.4,162.1313,649.8,159.7313" style="stroke: #A80036; stroke-width: 0.6000000238418579;"/><line style="stroke: #A80036; stroke-width: 0.6000000238418579;" x1="530.4" x2="651" y1="159.7313" y2="159.7313"/><text fill="#000000" font-family="sans-serif" font-size="7.8" font-weight="bold" lengthAdjust="spacingAndGlyphs" textLength="5.4" x="534.6" y="152.6654">3</text><text fill="#000000" font-family="sans-serif" font-size="7.8" lengthAdjust="spacingAndGlyphs" textLength="102" x="542.4" y="148.0723">Request settlementWindow</text><text fill="#FF0000" font-family="sans-serif" font-size="7.8" font-weight="bold" lengthAdjust="spacingAndGlyphs" textLength="43.8" x="542.4" y="157.2586">Error code:</text><text fill="#FF0000" font-family="sans-serif" font-size="7.8" lengthAdjust="spacingAndGlyphs" textLength="19.2" x="588.6" y="157.2586">2001</text><polygon fill="#FFFFE0" filter="url(#f1e9mcxjslxefv)" points="593.4,167.9039,721.8,167.9039,727.8,202.1039,721.8,236.9039,593.4,236.9039,587.4,202.1039,593.4,167.9039" style="stroke: #A80036; stroke-width: 0.6000000238418579;"/><text fill="#000000" font-family="sans-serif" font-size="7.8" font-weight="bold" lengthAdjust="spacingAndGlyphs" textLength="75" x="594.6" y="177.8449">settlementWindow</text><text fill="#000000" font-family="sans-serif" font-size="7.8" lengthAdjust="spacingAndGlyphs" textLength="40.2" x="604.2" y="187.0313">createDate</text><text fill="#000000" font-family="sans-serif" font-size="7.8" font-weight="bold" lengthAdjust="spacingAndGlyphs" textLength="126" x="594.6" y="196.2176">settlementWindowStateChange</text><text fill="#000000" font-family="sans-serif" font-size="7.8" lengthAdjust="spacingAndGlyphs" textLength="18.6" x="604.2" y="205.4039">state</text><text fill="#000000" font-family="sans-serif" font-size="7.8" lengthAdjust="spacingAndGlyphs" textLength="25.2" x="604.2" y="214.5902">reason</text><text fill="#000000" font-family="sans-serif" font-size="7.8" lengthAdjust="spacingAndGlyphs" textLength="44.4" x="604.2" y="223.7766">changeDate</text><text fill="#000000" font-family="sans-serif" font-size="7.8" lengthAdjust="spacingAndGlyphs" textLength="0" x="597" y="232.9629"/><polygon fill="#A80036" points="537,250.2082,531,252.6082,537,255.0082,534.6,252.6082" style="stroke: #A80036; stroke-width: 0.6000000238418579;"/><line style="stroke: #A80036; stroke-width: 0.6000000238418579; stroke-dasharray: 2.0,2.0;" x1="533.4" x2="657" y1="252.6082" y2="252.6082"/><text fill="#000000" font-family="sans-serif" font-size="7.8" font-weight="bold" lengthAdjust="spacingAndGlyphs" textLength="5.4" x="540.6" y="249.9492">4</text><text fill="#000000" font-family="sans-serif" font-size="7.8" lengthAdjust="spacingAndGlyphs" textLength="52.8" x="548.4" y="249.9492">Return results</text><path d="M13.8,261.7945 L51,261.7945 L51,265.9945 L45,271.9945 L13.8,271.9945 L13.8,261.7945 " fill="#EEEEEE" style="stroke: #000000; stroke-width: 0.6000000238418579;"/><rect fill="none" height="286.8996" style="stroke: #000000; stroke-width: 1.2000000476837158;" width="553.8" x="13.8" y="261.7945"/><text fill="#000000" font-family="sans-serif" font-size="7.8" font-weight="bold" lengthAdjust="spacingAndGlyphs" textLength="10.2" x="22.8" y="269.9356">alt</text><text fill="#000000" font-family="sans-serif" font-size="6.6" font-weight="bold" lengthAdjust="spacingAndGlyphs" textLength="88.2" x="60" y="269.3754">[settlementWindow found]</text><polygon fill="#A80036" points="336.6,282.3809,330.6,284.7809,336.6,287.1809,334.2,284.7809" style="stroke: #A80036; stroke-width: 0.6000000238418579;"/><line style="stroke: #A80036; stroke-width: 0.6000000238418579; stroke-dasharray: 2.0,2.0;" x1="333" x2="523.8" y1="284.7809" y2="284.7809"/><text fill="#000000" font-family="sans-serif" font-size="7.8" font-weight="bold" lengthAdjust="spacingAndGlyphs" textLength="5.4" x="340.2" y="282.1219">5</text><text fill="#000000" font-family="sans-serif" font-size="7.8" lengthAdjust="spacingAndGlyphs" textLength="128.4" x="348" y="282.1219">Operation successfully completed</text><path d="M213,292.7672 L213,362.9672 L318.6,362.9672 L318.6,298.7672 L312.6,292.7672 L213,292.7672 " fill="#FFFF00" filter="url(#f1e9mcxjslxefv)" style="stroke: #A80036; stroke-width: 0.6000000238418579;"/><path d="M312.6,292.7672 L312.6,298.7672 L318.6,298.7672 L312.6,292.7672 " fill="#FFFF00" style="stroke: #A80036; stroke-width: 0.6000000238418579;"/><text fill="#000000" font-family="sans-serif" font-size="7.8" lengthAdjust="spacingAndGlyphs" textLength="2.4" x="216.6" y="303.3082">{</text><text fill="#000000" font-family="sans-serif" font-size="7.8" lengthAdjust="spacingAndGlyphs" textLength="25.2" x="221.4" y="312.4945">"id": 0,</text><text fill="#000000" font-family="sans-serif" font-size="7.8" lengthAdjust="spacingAndGlyphs" textLength="66.6" x="221.4" y="321.6809">"reason": "string",</text><text fill="#000000" font-family="sans-serif" font-size="7.8" lengthAdjust="spacingAndGlyphs" textLength="60" x="221.4" y="330.8672">"state": "string",</text><text fill="#000000" font-family="sans-serif" font-size="7.8" lengthAdjust="spacingAndGlyphs" textLength="86.4" x="221.4" y="340.0535">"createdDate": "string",</text><text fill="#000000" font-family="sans-serif" font-size="7.8" lengthAdjust="spacingAndGlyphs" textLength="88.2" x="221.4" y="349.2399">"changedDate": "string"</text><text fill="#000000" font-family="sans-serif" font-size="7.8" lengthAdjust="spacingAndGlyphs" textLength="2.4" x="216.6" y="358.4262">}</text><polygon fill="#A80036" points="193.2,378.6715,187.2,381.0715,193.2,383.4715,190.8,381.0715" style="stroke: #A80036; stroke-width: 0.6000000238418579;"/><line style="stroke: #A80036; stroke-width: 0.6000000238418579; stroke-dasharray: 2.0,2.0;" x1="189.6" x2="323.4" y1="381.0715" y2="381.0715"/><text fill="#000000" font-family="sans-serif" font-size="7.8" font-weight="bold" lengthAdjust="spacingAndGlyphs" textLength="5.4" x="196.8" y="378.4125">6</text><text fill="#000000" font-family="sans-serif" font-size="7.8" lengthAdjust="spacingAndGlyphs" textLength="52.8" x="204.6" y="378.4125">Return results</text><line style="stroke: #000000; stroke-width: 0.6000000238418579; stroke-dasharray: 2.0,2.0;" x1="13.8" x2="567.6" y1="386.6578" y2="386.6578"/><text fill="#000000" font-family="sans-serif" font-size="6.6" font-weight="bold" lengthAdjust="spacingAndGlyphs" textLength="2.4" x="16.8" y="393.0387">[</text><text fill="#FF0000" font-family="sans-serif" font-size="6.6" font-weight="bold" lengthAdjust="spacingAndGlyphs" textLength="99" x="19.2" y="393.0387">Settlement Window not found</text><text fill="#000000" font-family="sans-serif" font-size="6.6" font-weight="bold" lengthAdjust="spacingAndGlyphs" textLength="2.4" x="118.2" y="393.0387">]</text><polygon fill="#A80036" points="336.6,405.2309,330.6,407.6309,336.6,410.0309,334.2,407.6309" style="stroke: #A80036; stroke-width: 0.6000000238418579;"/><line style="stroke: #A80036; stroke-width: 0.6000000238418579; stroke-dasharray: 2.0,2.0;" x1="333" x2="526.8" y1="407.6309" y2="407.6309"/><text fill="#000000" font-family="sans-serif" font-size="7.8" font-weight="bold" lengthAdjust="spacingAndGlyphs" textLength="5.4" x="340.2" y="404.9719">7</text><text fill="#000000" font-family="sans-serif" font-size="7.8" lengthAdjust="spacingAndGlyphs" textLength="172.2" x="348" y="404.9719">settlement window not found - Return ERROR</text><line style="stroke: #A80036; stroke-width: 0.6000000238418579; stroke-dasharray: 2.0,2.0;" x1="330" x2="355.2" y1="425.4035" y2="425.4035"/><line style="stroke: #A80036; stroke-width: 0.6000000238418579; stroke-dasharray: 2.0,2.0;" x1="355.2" x2="355.2" y1="425.4035" y2="433.2035"/><line style="stroke: #A80036; stroke-width: 0.6000000238418579; stroke-dasharray: 2.0,2.0;" x1="330.6" x2="355.2" y1="433.2035" y2="433.2035"/><polygon fill="#A80036" points="336.6,430.8035,330.6,433.2035,336.6,435.6035,334.2,433.2035" style="stroke: #A80036; stroke-width: 0.6000000238418579;"/><text fill="#000000" font-family="sans-serif" font-size="7.8" font-weight="bold" lengthAdjust="spacingAndGlyphs" textLength="5.4" x="334.2" y="422.5582">8</text><text fill="#000000" font-family="sans-serif" font-size="7.8" lengthAdjust="spacingAndGlyphs" textLength="63.6" x="342" y="422.5582">Update Event log</text><path d="M333,441.0035 L333,465.0035 L457.2,465.0035 L457.2,447.0035 L451.2,441.0035 L333,441.0035 " fill="#ADD8E6" filter="url(#f1e9mcxjslxefv)" style="stroke: #A80036; stroke-width: 0.6000000238418579;"/><path d="M451.2,441.0035 L451.2,447.0035 L457.2,447.0035 L451.2,441.0035 " fill="#ADD8E6" style="stroke: #A80036; stroke-width: 0.6000000238418579;"/><text fill="#000000" font-family="sans-serif" font-size="7.8" lengthAdjust="spacingAndGlyphs" textLength="82.2" x="336.6" y="451.5445">Log ERROR Messages.</text><text fill="#000000" font-family="sans-serif" font-size="7.8" lengthAdjust="spacingAndGlyphs" textLength="111.6" x="336.6" y="460.7309">Update Event log with ERROR.</text><path d="M19.8,473.7762 L19.8,525.3762 L318.6,525.3762 L318.6,479.7762 L312.6,473.7762 L19.8,473.7762 " fill="#FFFF00" filter="url(#f1e9mcxjslxefv)" style="stroke: #A80036; stroke-width: 0.6000000238418579;"/><path d="M312.6,473.7762 L312.6,479.7762 L318.6,479.7762 L312.6,473.7762 " fill="#FFFF00" style="stroke: #A80036; stroke-width: 0.6000000238418579;"/><text fill="#000000" font-family="sans-serif" font-size="7.8" lengthAdjust="spacingAndGlyphs" textLength="2.4" x="23.4" y="484.3172">{</text><text fill="#000000" font-family="sans-serif" font-size="7.8" lengthAdjust="spacingAndGlyphs" textLength="41.4" x="28.2" y="493.5035">"status": 0,</text><text fill="#000000" font-family="sans-serif" font-size="7.8" lengthAdjust="spacingAndGlyphs" textLength="281.4" x="28.2" y="502.6899">"code": "(ERROR response code eg. '404' - Defined in swagger definition))",</text><text fill="#000000" font-family="sans-serif" font-size="7.8" lengthAdjust="spacingAndGlyphs" textLength="72" x="28.2" y="511.8762">"message": "string"</text><text fill="#000000" font-family="sans-serif" font-size="7.8" lengthAdjust="spacingAndGlyphs" textLength="2.4" x="23.4" y="521.0625">}</text><polygon fill="#A80036" points="190.2,541.3078,184.2,543.7078,190.2,546.1078,187.8,543.7078" style="stroke: #A80036; stroke-width: 0.6000000238418579;"/><line style="stroke: #A80036; stroke-width: 0.6000000238418579; stroke-dasharray: 2.0,2.0;" x1="186.6" x2="326.4" y1="543.7078" y2="543.7078"/><text fill="#000000" font-family="sans-serif" font-size="7.8" font-weight="bold" lengthAdjust="spacingAndGlyphs" textLength="5.4" x="193.8" y="541.0488">9</text><text fill="#000000" font-family="sans-serif" font-size="7.8" lengthAdjust="spacingAndGlyphs" textLength="51.6" x="201.6" y="541.0488">Return ERROR</text><!--
@startuml
title Returns a Settlement Window as per id

autonumber

actor "Hub Employee" as OPERATOR

boundary "Settlement Service API" as SSAPI
entity "Settlement DAO" as SETTLE_DAO

database "Central Store" as DB

box "Central HUB" #LightPink
    participant OPERATOR
end box

box "Settlement Service" #LightGreen
    participant SSAPI
    participant SETTLE_DAO
end box

box "Central Services" #LightYellow
    participant DB
end box

group Request Settlement Window properties
    activate OPERATOR
    OPERATOR -> SSAPI: GET - /settlementWindows/{id}
    activate SSAPI
    SSAPI -> SETTLE_DAO: Request settlementWindow
    activate SETTLE_DAO
    SETTLE_DAO -> DB: Request settlementWindow\n<color #FF0000><b>Error code:</b> 2001</color>
    activate DB
    hnote over DB #LightYellow
        **settlementWindow**
            createDate
        **settlementWindowStateChange**
            state
            reason
            changeDate

    end hnote
    SETTLE_DAO <- - DB: Return results
    deactivate DB
    alt settlementWindow found
        SSAPI <- - SETTLE_DAO: Operation successfully completed
        note left of SSAPI #Yellow
            {
              "id": 0,
              "reason": "string",
              "state": "string",
              "createdDate": "string",
              "changedDate": "string"
            }
        end note
        OPERATOR <- - SSAPI: Return results
    else <color #FF0000><b>Settlement Window not found</b></color>
        SETTLE_DAO - -> SSAPI: settlement window not found - Return ERROR
        deactivate SETTLE_DAO
        SSAPI - -> SSAPI: Update Event log
        note right of SSAPI #LightBlue
            Log ERROR Messages.
            Update Event log with ERROR.
        end note
        note left of SSAPI #Yellow
            {
              "status": 0,
              "code": "(ERROR response code eg. '404' - Defined in swagger definition))",
              "message": "string"
            }
        end note
        OPERATOR <- - SSAPI: Return ERROR
    deactivate SSAPI
    deactivate OPERATOR
    end
end
@enduml

PlantUML version 1.2018.01(Sun Jan 28 20:08:22 SAST 2018)
(GPL source distribution)
Java Runtime: OpenJDK Runtime Environment
JVM: OpenJDK 64-Bit Server VM
Java Version: 1.8.0_152-release-1136-b29
Operating System: Mac OS X
OS Version: 10.13.6
Default Encoding: UTF-8
Language: en
Country: ZA
--></g></svg>